<svg width="24" height="24" viewBox="0 0 24 24" fill="none" xmlns="http://www.w3.org/2000/svg">
<g id="ion:magnet-outline">
<path id="Vector" d="M13.7727 4.22661C12.5068 2.96072 10.7899 2.24955 8.99962 2.24955C7.20938 2.24955 5.49246 2.96072 4.22657 4.22661C2.96068 5.4925 2.24951 7.20942 2.24951 8.99966C2.24951 10.7899 2.96068 12.5068 4.22657 13.7727" stroke="#006FEC" stroke-width="2" stroke-miterlimit="10"/>
<path id="Vector_2" d="M10.5912 7.40895C10.168 6.99266 9.59758 6.76044 9.00402 6.76286C8.41046 6.76527 7.84191 7.00214 7.42219 7.42185C7.00248 7.84156 6.76562 8.41012 6.7632 9.00368C6.76079 9.59724 6.99301 10.1677 7.40929 10.5908" stroke="#006FEC" stroke-width="2" stroke-miterlimit="10"/>
<g id="Vector_3">
<path d="M21.75 15H19.5H21.75ZM19.7728 19.7728L18.1819 18.1819L19.7728 19.7728ZM15 21.75V19.5V21.75Z" fill="#006FEC"/>
<path d="M21.75 15H19.5M19.7728 19.7728L18.1819 18.1819M15 21.75V19.5" stroke="#006FEC" stroke-width="2" stroke-miterlimit="10" stroke-linecap="round"/>
</g>
<path id="Vector_4" d="M7.40891 10.5909L12.7119 15.8944C12.9931 16.1757 13.1511 16.5571 13.1511 16.9549C13.1511 17.3527 12.9931 17.7342 12.7119 18.0155L11.6516 19.0781C11.5123 19.2174 11.3469 19.328 11.1649 19.4034C10.9829 19.4788 10.7878 19.5176 10.5908 19.5176C10.3938 19.5176 10.1987 19.4788 10.0167 19.4034C9.83467 19.328 9.66929 19.2174 9.53 19.0781L4.22656 13.7728M13.7727 4.22671L19.078 9.53015C19.2173 9.66944 19.3278 9.83481 19.4032 10.0168C19.4786 10.1988 19.5174 10.3939 19.5174 10.5909C19.5174 10.7879 19.4786 10.983 19.4032 11.165C19.3278 11.347 19.2173 11.5124 19.078 11.6517L18.0172 12.712C17.8779 12.8513 17.7125 12.9619 17.5305 13.0373C17.3485 13.1127 17.1534 13.1515 16.9564 13.1515C16.7594 13.1515 16.5643 13.1127 16.3823 13.0373C16.2003 12.9619 16.0349 12.8513 15.8956 12.712L10.5908 7.40905M7.96766 17.4562L11.15 14.2744M14.3319 11.0925L17.5138 7.91015" stroke="#006FEC" stroke-width="2" stroke-linejoin="round"/>
</g>
</svg>
