<svg width="24" height="24" viewBox="0 0 24 24" fill="none" xmlns="http://www.w3.org/2000/svg">
<g id="eos-icons:performance">
<path id="Vector" d="M15 22.007H5.00003V20.007H15V22.007ZM22 4L17.265 9.955L17.045 10.225L11.415 17.415C11.2292 17.6008 11.0086 17.7482 10.7658 17.8488C10.523 17.9494 10.2628 18.0011 10 18.0011C9.73724 18.0011 9.47702 17.9494 9.23423 17.8488C8.99145 17.7482 8.77085 17.6008 8.58503 17.415C8.39921 17.2292 8.25181 17.0086 8.15124 16.7658C8.05068 16.523 7.99892 16.2628 7.99892 16C7.99892 15.7372 8.05068 15.477 8.15124 15.2342C8.25181 14.9914 8.39921 14.7708 8.58503 14.585L22 4ZM2.64503 7.234C1.20056 9.54754 0.681038 12.3205 1.19003 15H2.00003V14C1.98913 12.031 2.57866 10.1054 3.69003 8.48L2.64503 7.234ZM12 2C10.4707 1.99966 8.95826 2.31944 7.55996 2.93876C6.16166 3.55808 4.90848 4.46324 3.88103 5.596L5.02503 6.96C6.38255 5.71173 8.15588 5.0131 10 5C11.8541 5.01293 13.6364 5.71843 14.997 6.978L18.547 4.176C16.6566 2.76326 14.36 1.99992 12 2ZM18.83 11.2L18.597 11.487L17.869 12.417C17.9541 12.9404 17.9979 13.4697 18 14V15H22.81C23.2846 12.4974 22.8659 9.90762 21.627 7.682L18.83 11.2Z" fill="#006FEC"/>
</g>
</svg>
