<svg width="24" height="24" viewBox="0 0 24 24" fill="none" xmlns="http://www.w3.org/2000/svg">
<g id="game-icons:platform">
<path id="Vector" d="M14.9062 5.79575L12.0234 7.46919L9.12844 5.79575L12.0234 4.12231L14.9062 5.79575ZM19.2975 8.33591L16.4025 10.0093L19.2975 11.6828L22.1803 10.0093L19.2975 8.33591ZM5.49797 12.1159L8.39297 13.7893L11.2758 12.1159L8.39297 10.4425L5.49797 12.1159ZM12.038 8.33919L9.14297 10.0126L12.038 11.6861L14.9208 10.0126L12.038 8.33919ZM1.45312 13.9858L4.35938 15.6587V12.3306L1.45312 10.6595V13.9876V13.9858ZM18.9375 12.767L16.0312 14.44V17.7653L18.9375 16.0937V12.767ZM8.38547 6.23263L5.49047 7.90606L8.38547 9.5795L11.2683 7.90606L8.38547 6.23263ZM5.10938 16.0923L8.01562 17.7653V14.44L5.10938 12.767V16.0951V16.0923ZM15.6755 10.4462L12.7805 12.1197L15.6755 13.7931L18.5583 12.1197L15.6755 10.4462ZM11.6719 16.5493L8.76562 14.8759V18.204L11.6719 19.8775V16.5493ZM15.2812 14.8773L12.4219 16.5493V19.8747L15.2812 18.2031V14.8773ZM15.6595 6.22888L12.7645 7.90231L15.6595 9.57575L18.5423 7.90231L15.6595 6.22888ZM4.75641 8.33591L1.86094 10.0093L4.75594 11.6828L7.63875 10.0093L4.75641 8.33591ZM22.5469 10.667L19.6875 12.3386V15.6639L22.5469 13.9923V10.667ZM9.13547 14.2262L12.0305 15.8997L14.9133 14.2262L12.0305 12.5528L9.13547 14.2262Z" fill="#006FEC"/>
</g>
</svg>
