<svg width="24" height="24" viewBox="0 0 24 24" fill="none" xmlns="http://www.w3.org/2000/svg">
<g id="fluent:arrow-growth-24-regular">
<path id="Vector" d="M16.7491 2H21.3031L21.4031 2.014L21.5021 2.042L21.5621 2.068C21.6421 2.102 21.7151 2.153 21.7811 2.218L21.8211 2.262L21.8651 2.319L21.9191 2.409L21.9581 2.499L21.9771 2.563L21.9911 2.627L22.0001 2.722V7.254C22 7.44402 21.9278 7.62694 21.7981 7.76579C21.6684 7.90464 21.4908 7.98907 21.3012 8.00203C21.1116 8.01498 20.9242 7.95548 20.7768 7.83557C20.6294 7.71565 20.533 7.54425 20.5071 7.356L20.5001 7.254V4.559L14.0601 10.999C13.9331 11.126 13.7647 11.2032 13.5856 11.2166C13.4065 11.23 13.2286 11.1787 13.0841 11.072L13.0001 11L9.97008 8.09L4.28008 13.779C4.14626 13.9132 3.96659 13.9917 3.77721 13.9989C3.58782 14.006 3.40277 13.9412 3.25924 13.8174C3.11572 13.6936 3.02437 13.5201 3.00356 13.3317C2.98275 13.1434 3.03403 12.9541 3.14708 12.802L3.22008 12.718L9.44008 6.498C9.5672 6.37113 9.73562 6.29409 9.91472 6.28088C10.0938 6.26766 10.2717 6.31916 10.4161 6.426L10.5001 6.498L13.5301 9.408L19.4381 3.5H16.7481C16.567 3.49975 16.3922 3.43401 16.2558 3.3149C16.1194 3.1958 16.0307 3.03138 16.0061 2.852L15.9991 2.75C15.9991 2.56876 16.0647 2.39366 16.1839 2.25707C16.303 2.12048 16.4675 2.03165 16.6471 2.007L16.7491 2ZM3.75008 17C3.949 17 4.13976 17.079 4.28041 17.2197C4.42107 17.3603 4.50008 17.5511 4.50008 17.75V21.25C4.50008 21.4489 4.42107 21.6397 4.28041 21.7803C4.13976 21.921 3.949 22 3.75008 22C3.55117 22 3.36041 21.921 3.21975 21.7803C3.0791 21.6397 3.00008 21.4489 3.00008 21.25V17.75C3.00008 17.5511 3.0791 17.3603 3.21975 17.2197C3.36041 17.079 3.55117 17 3.75008 17ZM9.50008 13.75C9.50008 13.5511 9.42106 13.3603 9.28041 13.2197C9.13976 13.079 8.949 13 8.75008 13C8.55117 13 8.36041 13.079 8.21975 13.2197C8.0791 13.3603 8.00008 13.5511 8.00008 13.75V21.25C8.00008 21.4489 8.0791 21.6397 8.21975 21.7803C8.36041 21.921 8.55117 22 8.75008 22C8.949 22 9.13976 21.921 9.28041 21.7803C9.42106 21.6397 9.50008 21.4489 9.50008 21.25V13.75ZM13.7501 15C13.949 15 14.1398 15.079 14.2804 15.2197C14.4211 15.3603 14.5001 15.5511 14.5001 15.75V21.25C14.5001 21.4489 14.4211 21.6397 14.2804 21.7803C14.1398 21.921 13.949 22 13.7501 22C13.5512 22 13.3604 21.921 13.2198 21.7803C13.0791 21.6397 13.0001 21.4489 13.0001 21.25V15.75C13.0001 15.5511 13.0791 15.3603 13.2198 15.2197C13.3604 15.079 13.5512 15 13.7501 15ZM19.5001 10.75C19.5001 10.5511 19.4211 10.3603 19.2804 10.2197C19.1398 10.079 18.949 10 18.7501 10C18.5512 10 18.3604 10.079 18.2198 10.2197C18.0791 10.3603 18.0001 10.5511 18.0001 10.75V21.25C18.0001 21.4489 18.0791 21.6397 18.2198 21.7803C18.3604 21.921 18.5512 22 18.7501 22C18.949 22 19.1398 21.921 19.2804 21.7803C19.4211 21.6397 19.5001 21.4489 19.5001 21.25V10.75Z" fill="#006FEC"/>
</g>
</svg>
