<svg width="24" height="24" viewBox="0 0 24 24" fill="none" xmlns="http://www.w3.org/2000/svg">
<g id="icon-park-outline:globe">
<g id="Group">
<path id="Vector" d="M18.913 2C19.8892 2.91901 20.6667 4.02827 21.1976 5.25937C21.7286 6.49047 22.0016 7.8173 22 9.158C22 14.5935 17.5935 19 12.158 19C10.8173 19.0016 9.49047 18.7286 8.25937 18.1976C7.02827 17.6667 5.91901 16.8892 5 15.913" stroke="#006FEC" stroke-width="2" stroke-linecap="round" stroke-linejoin="round"/>
<path id="Vector_2" d="M12 16C15.866 16 19 12.866 19 9C19 5.134 15.866 2 12 2C8.134 2 5 5.134 5 9C5 12.866 8.134 16 12 16Z" stroke="#006FEC" stroke-width="2" stroke-linecap="round" stroke-linejoin="round"/>
<path id="Vector_3" d="M12 19V22M9 22H15" stroke="#006FEC" stroke-width="2" stroke-linecap="round" stroke-linejoin="round"/>
</g>
</g>
</svg>
