<svg width="24" height="24" viewBox="0 0 24 24" fill="none" xmlns="http://www.w3.org/2000/svg">
<g id="mdi:tab-search">
<path id="Vector" d="M7.49986 11C4.99986 11 2.99986 13 2.99986 15.5C2.99986 16.38 3.24986 17.21 3.68986 17.9L0.609863 21L1.99986 22.39L5.11986 19.32C5.80986 19.75 6.62986 20 7.49986 20C9.99986 20 11.9999 18 11.9999 15.5C11.9999 13 9.99986 11 7.49986 11ZM7.49986 18C6.83682 18 6.20094 17.7366 5.7321 17.2678C5.26326 16.7989 4.99986 16.163 4.99986 15.5C4.99986 14.837 5.26326 14.2011 5.7321 13.7322C6.20094 13.2634 6.83682 13 7.49986 13C8.1629 13 8.79879 13.2634 9.26763 13.7322C9.73647 14.2011 9.99986 14.837 9.99986 15.5C9.99986 16.163 9.73647 16.7989 9.26763 17.2678C8.79879 17.7366 8.1629 18 7.49986 18ZM22.9999 5V19C22.9999 20.11 22.1099 21 20.9999 21H10.9499C11.7599 20.5 12.4499 19.81 12.9699 19H20.9999V9H12.9999V5H2.99986V10.82C1.76986 12 0.999863 13.66 0.999863 15.5V5C0.999863 3.9 1.89986 3 2.99986 3H20.9999C21.5303 3 22.039 3.21071 22.4141 3.58579C22.7891 3.96086 22.9999 4.46957 22.9999 5Z" fill="#006FEC"/>
</g>
</svg>
