<svg width="24" height="24" viewBox="0 0 24 24" fill="none" xmlns="http://www.w3.org/2000/svg">
<g id="vaadin:automation" clip-path="url(#clip0_4518_13981)">
<path id="Vector" d="M21.0002 18C21.0092 18.3996 20.9384 18.7968 20.7918 19.1686C20.6451 19.5403 20.4257 19.879 20.1464 20.1648C19.8671 20.4506 19.5335 20.6777 19.1652 20.8328C18.7969 20.9878 18.4013 21.0678 18.0017 21.0679C17.6021 21.068 17.2065 20.9882 16.8381 20.8333C16.4698 20.6784 16.1361 20.4515 15.8566 20.1659C15.5771 19.8802 15.3576 19.5416 15.2108 19.17C15.0639 18.7983 14.9929 18.4011 15.0017 18.0015C15.019 17.2177 15.3425 16.4718 15.903 15.9235C16.4634 15.3752 17.2162 15.0681 18.0002 15.0679C18.7843 15.0677 19.5372 15.3744 20.0979 15.9224C20.6586 16.4705 20.9825 17.2162 21.0002 18Z" fill="#006FEC"/>
<path id="Vector_2" d="M17.55 24C16.35 24 15.15 23.7 14.1 22.95L4.8 18C4.05 17.4 3.45 17.1 2.85 16.5C1.05 14.7 0 12.15 0 9.6C0 7.05 1.05 4.65 2.85 2.85C4.65 1.05 7.05 0 9.6 0C12.15 0 14.55 1.05 16.5 2.85C17.1 3.45 17.4 3.9 18 4.65L23.25 14.25C24.75 16.8 24.3 19.95 22.2 22.05C20.85 23.4 19.35 24 17.55 24ZM9.6 1.5C7.5 1.5 5.4 2.4 3.9 3.9C2.4 5.4 1.5 7.5 1.5 9.6C1.5 11.85 2.4 13.8 3.9 15.3C4.35 15.75 4.8 16.05 5.55 16.5L15 21.6C15.9 22.2 16.8 22.35 17.7 22.35C19.05 22.35 20.25 21.9 21.15 20.85C22.8 19.2 23.1 16.8 21.9 14.85L16.65 5.25C16.2 4.65 15.9 4.2 15.45 3.75C13.8 2.4 11.85 1.5 9.6 1.5Z" fill="#006FEC"/>
<path id="Vector_3" d="M16.5 10.5V9L14.4 8.25C14.25 7.95 14.25 7.8 14.1 7.5L15 5.55L13.95 4.5L12 5.4C11.7 5.25 11.55 5.25 11.25 5.1L10.5 3H9L8.25 5.1C7.95 5.25 7.8 5.25 7.5 5.4L5.55 4.5L4.5 5.55L5.4 7.5C5.25 7.8 5.25 7.95 5.1 8.25L3 9V10.5L5.1 11.25C5.25 11.55 5.25 11.7 5.4 12L4.5 13.95L5.55 15L7.5 14.1C7.8 14.25 7.95 14.4 8.25 14.4L9 16.5H10.5L11.25 14.4C11.55 14.25 11.7 14.25 12 14.1L13.95 15L15 13.95L14.1 12C14.25 11.7 14.4 11.55 14.4 11.25L16.5 10.5ZM9.75 12C8.55 12 7.5 10.95 7.5 9.75C7.5 8.55 8.55 7.5 9.75 7.5C10.95 7.5 12 8.55 12 9.75C12 10.95 10.95 12 9.75 12Z" fill="#006FEC"/>
</g>
<defs>
<clipPath id="clip0_4518_13981">
<rect width="24" height="24" fill="white"/>
</clipPath>
</defs>
</svg>
