<svg width="24" height="24" viewBox="0 0 24 24" fill="none" xmlns="http://www.w3.org/2000/svg">
<g id="eva:google-fill">
<g id="evaGoogleFill0">
<g id="evaGoogleFill1">
<path id="evaGoogleFill2" d="M17.5001 13.9999C17.2074 15.0184 16.6271 15.9308 15.829 16.6278C15.0309 17.3248 14.0487 17.777 13.0001 17.9299C12.1801 18.0489 11.3446 18.001 10.5436 17.789C9.74263 17.577 8.99275 17.2053 8.33898 16.6963C7.6852 16.1873 7.14103 15.5514 6.73911 14.8269C6.3372 14.1024 6.08584 13.3041 6.00011 12.4799C5.93371 11.6526 6.03968 10.8205 6.31133 10.0362C6.58298 9.2519 7.0144 8.5325 7.57832 7.92347C8.14223 7.31445 8.82637 6.82904 9.58748 6.49795C10.3486 6.16686 11.1701 5.99729 12.0001 5.99995C12.7779 6.00104 13.5483 6.15038 14.2701 6.43995C14.3838 6.49098 14.5124 6.49773 14.6308 6.45889C14.7492 6.42004 14.8488 6.3384 14.9101 6.22995L16.3501 3.57995C16.3811 3.51891 16.3997 3.45235 16.405 3.3841C16.4102 3.31584 16.4019 3.24722 16.3805 3.18218C16.3591 3.11715 16.3251 3.05697 16.2804 3.00511C16.2358 2.95324 16.1813 2.91071 16.1201 2.87995C14.5738 2.17986 12.8748 1.88489 11.183 2.02282C9.49125 2.16075 7.86243 2.72703 6.44996 3.66834C5.0375 4.60965 3.88789 5.895 3.10939 7.40333C2.3309 8.91166 1.94916 10.5933 2.00011 12.2899C2.09866 14.8098 3.13449 17.2022 4.90469 18.9983C6.67489 20.7944 9.05191 21.8648 11.5701 22C14.208 22.1169 16.7852 21.1858 18.7392 19.4098C20.6932 17.6338 21.8654 15.157 22.0001 12.5199V10.5199C21.9976 10.3881 21.9441 10.2624 21.8508 10.1692C21.7576 10.076 21.6319 10.0225 21.5001 10.0199H12.5001C12.3675 10.0199 12.2403 10.0726 12.1466 10.1664C12.0528 10.2602 12.0001 10.3873 12.0001 10.5199V13.5199C12.0001 13.6526 12.0528 13.7797 12.1466 13.8735C12.2403 13.9673 12.3675 14.0199 12.5001 14.0199H17.5001" fill="#006FEC"/>
</g>
</g>
</g>
</svg>
