<svg width="24" height="24" viewBox="0 0 24 24" fill="none" xmlns="http://www.w3.org/2000/svg">
<g id="dashicons:analytics">
<path id="Vector" d="M21.5999 21.5999V2.3999H2.3999V21.5999H21.5999ZM19.1999 5.9999H4.7999V4.7999H19.1999V5.9999ZM8.3999 8.3999V11.9999H11.9999C11.9999 13.9919 10.3919 15.5999 8.3999 15.5999C6.4079 15.5999 4.7999 13.9919 4.7999 11.9999C4.7999 10.0079 6.4079 8.3999 8.3999 8.3999ZM9.5999 10.7999V8.3999C10.9199 8.3999 11.9999 9.4799 11.9999 10.7999H9.5999ZM19.1999 9.5999H14.3999V8.3999H19.1999V9.5999ZM19.1999 13.1999H14.3999V10.7999H19.1999V13.1999ZM19.1999 15.5999H14.3999V14.3999H19.1999V15.5999ZM19.1999 19.1999H4.7999V17.9999H19.1999V19.1999Z" fill="#006FEC"/>
</g>
</svg>
