<svg width="26" height="24" viewBox="0 0 26 24" fill="none" xmlns="http://www.w3.org/2000/svg">
<g id="fa:gears" clip-path="url(#clip0_4518_13763)">
<path id="Vector" d="M12.0029 12.0001C12.0029 11.0536 11.6681 10.2456 10.9985 9.57596C10.3288 8.90632 9.52079 8.5715 8.57436 8.5715C7.62793 8.5715 6.81989 8.90632 6.15025 9.57596C5.48061 10.2456 5.14579 11.0536 5.14579 12.0001C5.14579 12.9465 5.48061 13.7545 6.15025 14.4242C6.81989 15.0938 7.62793 15.4286 8.57436 15.4286C9.52079 15.4286 10.3288 15.0938 10.9985 14.4242C11.6681 13.7545 12.0029 12.9465 12.0029 12.0001ZM22.2886 18.8572C22.2886 18.3929 22.119 17.9911 21.7797 17.6519C21.4404 17.3126 21.0386 17.1429 20.5744 17.1429C20.1101 17.1429 19.7083 17.3126 19.369 17.6519C19.0297 17.9911 18.8601 18.3929 18.8601 18.8572C18.8601 19.3304 19.0275 19.7344 19.3623 20.0693C19.6971 20.4041 20.1011 20.5715 20.5744 20.5715C21.0476 20.5715 21.4516 20.4041 21.7864 20.0693C22.1212 19.7344 22.2886 19.3304 22.2886 18.8572ZM22.2886 5.14293C22.2886 4.67864 22.119 4.27686 21.7797 3.93757C21.4404 3.59828 21.0386 3.42864 20.5744 3.42864C20.1101 3.42864 19.7083 3.59828 19.369 3.93757C19.0297 4.27686 18.8601 4.67864 18.8601 5.14293C18.8601 5.61614 19.0275 6.02016 19.3623 6.35498C19.6971 6.6898 20.1011 6.85721 20.5744 6.85721C21.0476 6.85721 21.4516 6.6898 21.7864 6.35498C22.1212 6.02016 22.2886 5.61614 22.2886 5.14293ZM17.1458 10.7813V13.259C17.1458 13.3483 17.1145 13.4353 17.052 13.5202C16.9895 13.605 16.9181 13.6519 16.8378 13.6608L14.7619 13.9822C14.6636 14.2947 14.5208 14.634 14.3333 15.0001C14.6369 15.4286 15.0386 15.942 15.5386 16.5402C15.6011 16.6385 15.6324 16.7277 15.6324 16.8081C15.6324 16.9152 15.6011 17.0001 15.5386 17.0626C15.3333 17.3304 14.965 17.73 14.4337 18.2612C13.9025 18.7925 13.552 19.0581 13.3824 19.0581C13.2842 19.0581 13.1904 19.0269 13.1011 18.9644L11.561 17.759C11.2306 17.9286 10.8869 18.067 10.5297 18.1742C10.4315 19.1385 10.3288 19.8304 10.2217 20.2501C10.1592 20.4644 10.0253 20.5715 9.81989 20.5715H7.32882C7.23061 20.5715 7.14132 20.538 7.06097 20.4711C6.98061 20.4041 6.93597 20.326 6.92704 20.2367L6.619 18.1876C6.31543 18.0983 5.98061 17.9599 5.61454 17.7724L4.03418 18.9644C3.97168 19.0269 3.88239 19.0581 3.76632 19.0581C3.66811 19.0581 3.57436 19.0224 3.48507 18.951C2.19936 17.7635 1.5565 17.0492 1.5565 16.8081C1.5565 16.7277 1.58775 16.6429 1.65025 16.5536C1.73954 16.4286 1.92257 16.192 2.19936 15.8438C2.47614 15.4956 2.68597 15.2233 2.82882 15.0269C2.62347 14.634 2.46722 14.2679 2.36007 13.9286L0.324358 13.6072C0.235073 13.5983 0.15918 13.5559 0.0966797 13.48C0.0341797 13.4041 0.00292969 13.317 0.00292969 13.2188V10.7411C0.00292969 10.6519 0.0341797 10.5648 0.0966797 10.48C0.15918 10.3952 0.230608 10.3483 0.310965 10.3394L2.38686 10.0179C2.48507 9.70543 2.62793 9.36614 2.81543 9.00007C2.51186 8.5715 2.11007 8.05811 1.61007 7.45989C1.54757 7.36168 1.51632 7.27239 1.51632 7.19203C1.51632 7.08489 1.54757 6.99561 1.61007 6.92418C1.8065 6.65632 2.17257 6.259 2.70829 5.73221C3.244 5.20543 3.59668 4.94203 3.76632 4.94203C3.86454 4.94203 3.95829 4.97328 4.04757 5.03578L5.58775 6.24114C5.89132 6.08043 6.23507 5.93757 6.619 5.81257C6.71722 4.84828 6.81989 4.16078 6.92704 3.75007C6.98954 3.53578 7.12347 3.42864 7.32882 3.42864H9.81989C9.91811 3.42864 10.0074 3.46212 10.0878 3.52909C10.1681 3.59605 10.2128 3.67418 10.2217 3.76346L10.5297 5.81257C10.8333 5.90186 11.1681 6.04025 11.5342 6.22775L13.1145 5.03578C13.186 4.97328 13.2753 4.94203 13.3824 4.94203C13.4806 4.94203 13.5744 4.97775 13.6636 5.04918C14.9494 6.23668 15.5922 6.95096 15.5922 7.19203C15.5922 7.26346 15.561 7.34828 15.4985 7.4465C15.3913 7.58936 15.2038 7.83043 14.936 8.16971C14.6681 8.509 14.4672 8.77686 14.3333 8.97328C14.5386 9.40186 14.6904 9.76793 14.7886 10.0715L16.8244 10.3795C16.9136 10.3974 16.9895 10.4443 17.052 10.5202C17.1145 10.5961 17.1458 10.6831 17.1458 10.7813ZM25.7172 17.9197V19.7947C25.7172 19.9376 25.052 20.076 23.7217 20.2099C23.6145 20.451 23.4806 20.6831 23.3199 20.9063C23.7753 21.9152 24.0029 22.5313 24.0029 22.7545C24.0029 22.7902 23.9851 22.8215 23.9494 22.8483C22.8601 23.4822 22.3065 23.7992 22.2886 23.7992C22.2172 23.7992 22.0119 23.5894 21.6726 23.1697C21.3333 22.7501 21.1011 22.4465 20.9761 22.259C20.7976 22.2769 20.6636 22.2858 20.5744 22.2858C20.4851 22.2858 20.3511 22.2769 20.1726 22.259C20.0476 22.4465 19.8154 22.7501 19.4761 23.1697C19.1369 23.5894 18.9315 23.7992 18.8601 23.7992C18.8422 23.7992 18.2886 23.4822 17.1994 22.8483C17.1636 22.8215 17.1458 22.7902 17.1458 22.7545C17.1458 22.5313 17.3735 21.9152 17.8288 20.9063C17.6681 20.6831 17.5342 20.451 17.427 20.2099C16.0967 20.076 15.4315 19.9376 15.4315 19.7947V17.9197C15.4315 17.7769 16.0967 17.6385 17.427 17.5045C17.5431 17.2456 17.677 17.0135 17.8288 16.8081C17.3735 15.7992 17.1458 15.1831 17.1458 14.9599C17.1458 14.9242 17.1636 14.8929 17.1994 14.8661C17.2351 14.8483 17.3913 14.759 17.6681 14.5983C17.9449 14.4376 18.2083 14.2858 18.4583 14.1429C18.7083 14.0001 18.8422 13.9286 18.8601 13.9286C18.9315 13.9286 19.1369 14.1362 19.4761 14.5514C19.8154 14.9666 20.0476 15.2679 20.1726 15.4554C20.3511 15.4376 20.4851 15.4286 20.5744 15.4286C20.6636 15.4286 20.7976 15.4376 20.9761 15.4554C21.4315 14.8215 21.8422 14.3215 22.2083 13.9554L22.2886 13.9286C22.3244 13.9286 22.8779 14.2411 23.9494 14.8661C23.9851 14.8929 24.0029 14.9242 24.0029 14.9599C24.0029 15.1831 23.7753 15.7992 23.3199 16.8081C23.4717 17.0135 23.6056 17.2456 23.7217 17.5045C25.052 17.6385 25.7172 17.7769 25.7172 17.9197ZM25.7172 4.20543V6.08043C25.7172 6.22328 25.052 6.36168 23.7217 6.49561C23.6145 6.73668 23.4806 6.96882 23.3199 7.19203C23.7753 8.20096 24.0029 8.81703 24.0029 9.04025C24.0029 9.07596 23.9851 9.10721 23.9494 9.134C22.8601 9.76793 22.3065 10.0849 22.2886 10.0849C22.2172 10.0849 22.0119 9.87507 21.6726 9.45543C21.3333 9.03578 21.1011 8.73221 20.9761 8.54471C20.7976 8.56257 20.6636 8.5715 20.5744 8.5715C20.4851 8.5715 20.3511 8.56257 20.1726 8.54471C20.0476 8.73221 19.8154 9.03578 19.4761 9.45543C19.1369 9.87507 18.9315 10.0849 18.8601 10.0849C18.8422 10.0849 18.2886 9.76793 17.1994 9.134C17.1636 9.10721 17.1458 9.07596 17.1458 9.04025C17.1458 8.81703 17.3735 8.20096 17.8288 7.19203C17.6681 6.96882 17.5342 6.73668 17.427 6.49561C16.0967 6.36168 15.4315 6.22328 15.4315 6.08043V4.20543C15.4315 4.06257 16.0967 3.92418 17.427 3.79025C17.5431 3.53132 17.677 3.29918 17.8288 3.09382C17.3735 2.08489 17.1458 1.46882 17.1458 1.24561C17.1458 1.20989 17.1636 1.17864 17.1994 1.15186C17.2351 1.134 17.3913 1.04471 17.6681 0.883998C17.9449 0.723284 18.2083 0.571498 18.4583 0.428641C18.7083 0.285784 18.8422 0.214355 18.8601 0.214355C18.9315 0.214355 19.1369 0.421945 19.4761 0.837123C19.8154 1.2523 20.0476 1.55364 20.1726 1.74114C20.3511 1.72328 20.4851 1.71436 20.5744 1.71436C20.6636 1.71436 20.7976 1.72328 20.9761 1.74114C21.4315 1.10721 21.8422 0.607213 22.2083 0.241141L22.2886 0.214355C22.3244 0.214355 22.8779 0.526855 23.9494 1.15186C23.9851 1.17864 24.0029 1.20989 24.0029 1.24561C24.0029 1.46882 23.7753 2.08489 23.3199 3.09382C23.4717 3.29918 23.6056 3.53132 23.7217 3.79025C25.052 3.92418 25.7172 4.06257 25.7172 4.20543Z" fill="#006FEC"/>
</g>
<defs>
<clipPath id="clip0_4518_13763">
<rect width="25.72" height="24" fill="white"/>
</clipPath>
</defs>
</svg>
