<svg width="24" height="24" viewBox="0 0 24 24" fill="none" xmlns="http://www.w3.org/2000/svg">
<g id="iconoir:percentage-square">
<g id="Group">
<path id="Vector" d="M3 20.4V3.6C3 3.44087 3.06321 3.28826 3.17574 3.17574C3.28826 3.06321 3.44087 3 3.6 3H20.4C20.5591 3 20.7117 3.06321 20.8243 3.17574C20.9368 3.28826 21 3.44087 21 3.6V20.4C21 20.5591 20.9368 20.7117 20.8243 20.8243C20.7117 20.9368 20.5591 21 20.4 21H3.6C3.44087 21 3.28826 20.9368 3.17574 20.8243C3.06321 20.7117 3 20.5591 3 20.4Z" stroke="#006FEC" stroke-width="1.5"/>
<path id="Vector_2" d="M15.5 16C15.6326 16 15.7598 15.9473 15.8536 15.8536C15.9473 15.7598 16 15.6326 16 15.5C16 15.3674 15.9473 15.2402 15.8536 15.1464C15.7598 15.0527 15.6326 15 15.5 15C15.3674 15 15.2402 15.0527 15.1464 15.1464C15.0527 15.2402 15 15.3674 15 15.5C15 15.6326 15.0527 15.7598 15.1464 15.8536C15.2402 15.9473 15.3674 16 15.5 16ZM8.5 9C8.63261 9 8.75979 8.94732 8.85355 8.85355C8.94732 8.75979 9 8.63261 9 8.5C9 8.36739 8.94732 8.24021 8.85355 8.14645C8.75979 8.05268 8.63261 8 8.5 8C8.36739 8 8.24021 8.05268 8.14645 8.14645C8.05268 8.24021 8 8.36739 8 8.5C8 8.63261 8.05268 8.75979 8.14645 8.85355C8.24021 8.94732 8.36739 9 8.5 9Z" fill="#006FEC" stroke="#006FEC" stroke-width="1.5" stroke-linecap="round" stroke-linejoin="round"/>
<path id="Vector_3" d="M16 8L8 16" stroke="#006FEC" stroke-width="1.5" stroke-linecap="round" stroke-linejoin="round"/>
</g>
</g>
</svg>
