<svg width="24" height="24" viewBox="0 0 24 24" fill="none" xmlns="http://www.w3.org/2000/svg">
<g id="nimbus:marketing" clip-path="url(#clip0_4518_13804)">
<path id="Vector" d="M21.375 3.30072C21.1171 3.13389 20.8222 3.03297 20.5162 3.00681C20.2102 2.98066 19.9024 3.03007 19.62 3.15072L10.365 6.79572C10.1459 6.8849 9.91156 6.93074 9.675 6.93072H3.75C3.25272 6.93072 2.77581 7.12826 2.42417 7.4799C2.07254 7.83153 1.875 8.30844 1.875 8.80572V8.95572H0V13.4557H1.875V13.6507C1.88675 14.1402 2.08947 14.6056 2.43983 14.9476C2.7902 15.2895 3.26042 15.4809 3.75 15.4807L6 20.2507C6.15236 20.5719 6.39222 20.8437 6.69204 21.0347C6.99187 21.2257 7.33949 21.3283 7.695 21.3307H8.64C9.13468 21.3268 9.60775 21.1275 9.95614 20.7763C10.3045 20.4251 10.5 19.9504 10.5 19.4557V15.6607L19.62 19.3057C19.8443 19.395 20.0836 19.4408 20.325 19.4407C20.6996 19.4347 21.0643 19.32 21.375 19.1107C21.6217 18.9441 21.8252 18.7212 21.9687 18.4604C22.1121 18.1995 22.1914 17.9083 22.2 17.6107V4.84572C22.1986 4.5405 22.1228 4.24022 21.979 3.97097C21.8352 3.70172 21.6279 3.47165 21.375 3.30072ZM8.625 8.80572V13.6507H3.75V8.80572H8.625ZM8.625 19.4557H7.68L5.835 15.4807H8.625V19.4557ZM11.055 13.8757C10.8769 13.7847 10.6912 13.7094 10.5 13.6507V8.70072C10.6894 8.66165 10.875 8.60645 11.055 8.53572L20.325 4.84572V17.5657L11.055 13.8757ZM22.245 9.33072V13.0807C22.7423 13.0807 23.2192 12.8832 23.5708 12.5315C23.9225 12.1799 24.12 11.703 24.12 11.2057C24.12 10.7084 23.9225 10.2315 23.5708 9.8799C23.2192 9.52826 22.7423 9.33072 22.245 9.33072Z" fill="#006FEC"/>
</g>
<defs>
<clipPath id="clip0_4518_13804">
<rect width="24" height="24" fill="white"/>
</clipPath>
</defs>
</svg>
