<svg width="24" height="24" viewBox="0 0 24 24" fill="none" xmlns="http://www.w3.org/2000/svg">
<g id="fa6-brands:adversal">
<path id="Vector" d="M22.5984 1.5H1.34531C0.271875 1.5 0 1.77656 0 2.85469V21.1453C0 22.2375 0.271875 22.5 1.34531 22.5H22.5984C23.7422 22.5 24 22.2562 24 21.1078V2.91563C24 1.7625 23.7469 1.5 22.5984 1.5ZM8.3625 10.3266C7.07344 9.37969 4.98281 9.91875 4.41562 11.4234C4.21406 11.9437 3.97969 11.8687 3.59531 11.8125C3.14062 11.7422 2.78906 11.6625 2.54063 11.5547C1.19063 11.0203 2.94375 8.9625 3.70781 8.54062C5.63437 7.5375 7.61719 7.5 9.58125 8.31562C11.4984 9.10312 11.1984 11.0906 11.1984 14.3391C11.325 15.5484 10.9969 17.0719 11.6344 18.5016C11.7234 18.7078 11.6531 18.8719 11.5078 19.0031C11.1141 19.3172 9.66562 19.1063 9.32344 18.6562C9.23438 18.5531 9.23906 18.4875 9.14062 18.3656C8.97188 18.1828 8.79844 18.2625 8.58281 18.4125C5.89219 20.1187 2.00625 19.4156 1.69219 16.3828C1.54687 15.0094 2.27344 13.7063 3.54844 13.0547C5.33906 12.1406 8.80781 12.5016 8.89219 11.6063C8.94375 11.1281 8.80312 10.6641 8.3625 10.3266ZM21.8016 20.7328C21.8016 21.4406 21.2812 21.1969 20.9672 21.1969H2.45625C2.10938 21.1969 1.60312 21.4219 1.62187 20.6953C1.64062 20.0438 2.11406 20.2687 2.42344 20.2687C8.625 20.25 14.8219 20.25 21.0234 20.2687C21.3422 20.2687 21.8016 20.0625 21.8016 20.7328ZM21.9797 4.77188V18.4125C21.9797 18.6797 21.9469 19.0641 21.6 19.0641C21.0187 19.0453 20.3109 19.3969 19.9078 18.8016C19.6359 18.3938 19.5422 18.6141 19.3266 18.7453C16.8234 20.1375 13.3219 19.0781 12.5578 14.7516C12.2719 13.1859 12.525 11.6062 13.2938 10.0641C13.8469 8.94375 15.9609 6.49687 19.6734 8.63437V5.30625C19.6734 4.07812 19.6688 4.07812 20.8922 4.07812C21.0375 4.07812 21.2016 4.09687 21.3469 4.07812C21.8203 4.04063 21.9844 4.28438 21.9844 4.74844C21.9797 4.75781 21.9797 4.7625 21.9797 4.77188ZM19.5656 15.6609C18.6516 17.8922 16.1484 17.6906 15.3469 15.9047C14.6391 14.3437 14.6203 12.7078 15.3656 11.1469C16.1297 9.54844 18.1641 9.47344 19.1859 10.9219C20.1516 12.2719 19.8844 14.8875 19.5656 15.6609ZM5.74687 17.3156C5.39531 17.2547 4.2 17.1609 4.16719 16.0125C4.14844 15.3609 4.53281 14.9344 5.09531 14.8031C6.23906 14.5266 7.40625 14.3391 8.55 14.1141C8.96719 14.0203 8.89687 14.3203 8.91562 14.5594C8.98125 16.1063 7.69219 17.3344 5.74687 17.3156Z" fill="#006FEC"/>
</g>
</svg>
