<svg width="24" height="24" viewBox="0 0 24 24" fill="none" xmlns="http://www.w3.org/2000/svg">
<g id="pepicons-pop:megaphone-circle" clip-path="url(#clip0_4518_13936)">
<g id="Group">
<path id="Vector" fill-rule="evenodd" clip-rule="evenodd" d="M9.60006 12.0498L14.7693 13.4594V7.95691L9.60006 9.36644V12.0508V12.0498ZM7.75391 12.7551C7.75386 12.9576 7.82045 13.1545 7.94339 13.3155C8.06632 13.4765 8.2388 13.5926 8.43421 13.6458L15.4496 15.5584C15.5865 15.5958 15.7301 15.601 15.8693 15.5738C16.0086 15.5466 16.1397 15.4877 16.2524 15.4016C16.3652 15.3156 16.4566 15.2046 16.5196 15.0775C16.5825 14.9504 16.6153 14.8105 16.6154 14.6686V6.74675C16.6155 6.60481 16.5828 6.46477 16.5199 6.33753C16.457 6.21028 16.3656 6.09926 16.2528 6.01308C16.14 5.9269 16.0089 5.8679 15.8696 5.84065C15.7303 5.81341 15.5865 5.81865 15.4496 5.85598L8.43421 7.76952C8.2388 7.82279 8.06632 7.93886 7.94339 8.09983C7.82045 8.2608 7.75386 8.45774 7.75391 8.66029V12.7551Z" fill="#006FEC"/>
<path id="Vector_2" fill-rule="evenodd" clip-rule="evenodd" d="M7.3994 11.8154V9.60006H6.43386C6.24257 9.93803 6.14233 10.3199 6.14298 10.7082C6.14363 11.0966 6.24513 11.4781 6.43755 11.8154H7.40032H7.3994ZM8.32248 13.6616C8.56729 13.6616 8.80208 13.5643 8.97519 13.3912C9.1483 13.2181 9.24555 12.9833 9.24555 12.7385V8.67698C9.24555 8.43217 9.1483 8.19738 8.97519 8.02427C8.80208 7.85116 8.56729 7.75391 8.32248 7.75391H5.77201C5.7029 7.75385 5.63451 7.7679 5.57102 7.7952C5.50753 7.8225 5.45028 7.86247 5.40278 7.91268C3.92401 9.4736 3.93048 11.9308 5.40094 13.5001C5.4489 13.5511 5.50682 13.5918 5.57112 13.6196C5.63542 13.6474 5.70474 13.6617 5.77478 13.6616H8.32248Z" fill="#006FEC"/>
<path id="Vector_3" fill-rule="evenodd" clip-rule="evenodd" d="M8.69901 13.8462H8.15994L7.45286 16.6154H7.99101L8.69901 13.8462ZM8.15994 12C7.74968 12.0001 7.35111 12.1367 7.02716 12.3884C6.70321 12.6402 6.47235 12.9927 6.37101 13.3902L5.3704 17.3105C5.33564 17.4469 5.33252 17.5894 5.36127 17.7271C5.39002 17.8648 5.44988 17.9942 5.53627 18.1053C5.62267 18.2163 5.73331 18.3062 5.85975 18.3679C5.98619 18.4297 6.12507 18.4617 6.26578 18.4616H7.99194C8.40191 18.4614 8.80018 18.3248 9.12392 18.0733C9.44766 17.8217 9.67847 17.4696 9.77994 17.0724L10.4879 14.3031C10.5576 14.0305 10.564 13.7456 10.5067 13.4701C10.4493 13.1946 10.3298 12.9359 10.1572 12.7137C9.98461 12.4915 9.76349 12.3117 9.51077 12.188C9.25804 12.0643 8.98038 12 8.69901 12H8.15994ZM20.3372 6.87235C20.4045 6.9732 20.4512 7.08632 20.4748 7.20525C20.4984 7.32418 20.4983 7.44658 20.4745 7.56547C20.4508 7.68437 20.4039 7.79741 20.3364 7.89817C20.269 7.99892 20.1823 8.08539 20.0815 8.15266L18.6969 9.07574C18.4932 9.21161 18.2439 9.261 18.0038 9.21305C17.7636 9.1651 17.5524 9.02373 17.4166 8.82005C17.2807 8.61636 17.2313 8.36704 17.2792 8.12694C17.3272 7.88683 17.4686 7.67561 17.6722 7.53974L19.0569 6.61666C19.1577 6.54937 19.2708 6.5026 19.3898 6.47904C19.5087 6.45547 19.6311 6.45556 19.75 6.4793C19.8689 6.50305 19.9819 6.54998 20.0827 6.61742C20.1834 6.68486 20.2699 6.77149 20.3372 6.87235ZM17.2615 10.7077C17.2615 10.4629 17.3587 10.2281 17.5318 10.055C17.7049 9.88191 17.9397 9.78466 18.1846 9.78466H19.5692C19.814 9.78466 20.0488 9.88191 20.2219 10.055C20.395 10.2281 20.4922 10.4629 20.4922 10.7077C20.4922 10.9526 20.395 11.1873 20.2219 11.3605C20.0488 11.5336 19.814 11.6308 19.5692 11.6308H18.1846C17.9397 11.6308 17.7049 11.5336 17.5318 11.3605C17.3587 11.1873 17.2615 10.9526 17.2615 10.7077ZM17.4775 12.4699C17.5554 12.377 17.6509 12.3004 17.7584 12.2445C17.866 12.1885 17.9835 12.1543 18.1043 12.1437C18.225 12.1332 18.3467 12.1465 18.4623 12.183C18.5779 12.2195 18.6852 12.2784 18.7781 12.3564L20.0519 13.4271C20.2328 13.5865 20.3441 13.8102 20.3621 14.0506C20.3802 14.2909 20.3035 14.5288 20.1485 14.7134C19.9934 14.8979 19.7724 15.0145 19.5325 15.0383C19.2927 15.062 19.053 14.991 18.8649 14.8404L17.591 13.7696C17.4037 13.6122 17.2866 13.3869 17.2653 13.1432C17.244 12.8995 17.3203 12.6574 17.4775 12.4699Z" fill="#006FEC"/>
<path id="Vector_4" fill-rule="evenodd" clip-rule="evenodd" d="M12 22.1538C17.6077 22.1538 22.1538 17.6077 22.1538 12C22.1538 6.39231 17.6077 1.84615 12 1.84615C6.39231 1.84615 1.84615 6.39231 1.84615 12C1.84615 17.6077 6.39231 22.1538 12 22.1538ZM12 24C18.6277 24 24 18.6277 24 12C24 5.37231 18.6277 0 12 0C5.37231 0 0 5.37231 0 12C0 18.6277 5.37231 24 12 24Z" fill="#006FEC"/>
</g>
</g>
<defs>
<clipPath id="clip0_4518_13936">
<rect width="24" height="24" fill="white"/>
</clipPath>
</defs>
</svg>
