<svg width="24" height="24" viewBox="0 0 24 24" fill="none" xmlns="http://www.w3.org/2000/svg">
<g id="material-symbols:handshake-outline">
<path id="Vector" d="M11.8752 20C11.9419 20 12.0086 19.9833 12.0752 19.95C12.1419 19.9167 12.1919 19.8833 12.2252 19.85L20.4252 11.65C20.6252 11.45 20.7712 11.225 20.8632 10.975C20.9552 10.725 21.0009 10.475 21.0002 10.225C21.0002 9.95833 20.9542 9.704 20.8622 9.462C20.7702 9.22 20.6246 9.00767 20.4252 8.825L16.1752 4.575C15.9919 4.375 15.7792 4.229 15.5372 4.137C15.2952 4.045 15.0416 3.99933 14.7762 4C14.5262 4 14.2762 4.046 14.0262 4.138C13.7762 4.23 13.5512 4.37567 13.3512 4.575L13.0762 4.85L14.9262 6.725C15.1762 6.95833 15.3596 7.225 15.4762 7.525C15.5929 7.825 15.6512 8.14167 15.6512 8.475C15.6512 9.175 15.4139 9.76267 14.9392 10.238C14.4646 10.7133 13.8769 10.9507 13.1762 10.95C12.8429 10.95 12.5219 10.8917 12.2132 10.775C11.9046 10.6583 11.6339 10.4833 11.4012 10.25L9.52523 8.4L5.15023 12.775C5.10023 12.825 5.06257 12.8793 5.03723 12.938C5.0119 12.9967 4.99957 13.0587 5.00023 13.124C5.00023 13.2573 5.05023 13.3783 5.15023 13.487C5.25023 13.5957 5.3669 13.6497 5.50023 13.649C5.5669 13.649 5.63357 13.6323 5.70023 13.599C5.7669 13.5657 5.8169 13.5323 5.85023 13.499L9.25023 10.099L10.6502 11.499L7.27523 14.899C7.22523 14.949 7.18757 15.0033 7.16223 15.062C7.1369 15.1207 7.12457 15.183 7.12523 15.249C7.12523 15.3823 7.17523 15.499 7.27523 15.599C7.37523 15.699 7.4919 15.749 7.62523 15.749C7.6919 15.749 7.75857 15.7323 7.82523 15.699C7.8919 15.6657 7.9419 15.6323 7.97523 15.599L11.3752 12.224L12.7752 13.624L9.40023 17.024C9.35023 17.0573 9.31257 17.1073 9.28723 17.174C9.2619 17.2407 9.24957 17.3073 9.25023 17.374C9.25023 17.5073 9.30023 17.624 9.40023 17.724C9.50023 17.824 9.6169 17.874 9.75023 17.874C9.8169 17.874 9.87957 17.8613 9.93823 17.836C9.9969 17.8107 10.0509 17.7733 10.1002 17.724L13.5002 14.349L14.9002 15.749L11.5002 19.149C11.4502 19.199 11.4126 19.253 11.3872 19.311C11.3619 19.369 11.3496 19.4317 11.3502 19.499C11.3502 19.6323 11.4046 19.749 11.5132 19.849C11.6219 19.949 11.7426 20 11.8752 20ZM11.8502 22C11.2336 22 10.6876 21.7957 10.2122 21.387C9.7369 20.9783 9.4579 20.466 9.37523 19.85C8.80857 19.7667 8.33357 19.5333 7.95023 19.15C7.5669 18.7667 7.33357 18.2917 7.25023 17.725C6.68357 17.6417 6.21257 17.404 5.83723 17.012C5.4619 16.62 5.2329 16.1493 5.15023 15.6C4.5169 15.5167 4.00023 15.2417 3.60023 14.775C3.20023 14.3083 3.00023 13.7583 3.00023 13.125C3.00023 12.7917 3.0629 12.471 3.18823 12.163C3.31357 11.855 3.49257 11.584 3.72523 11.35L9.52523 5.575L12.8002 8.85C12.8336 8.9 12.8836 8.93767 12.9502 8.963C13.0169 8.98833 13.0836 9.00067 13.1502 9C13.3002 9 13.4252 8.95433 13.5252 8.863C13.6252 8.77167 13.6752 8.65067 13.6752 8.5C13.6752 8.43333 13.6626 8.36667 13.6372 8.3C13.6119 8.23333 13.5746 8.18333 13.5252 8.15L9.95023 4.575C9.7669 4.375 9.55457 4.229 9.31323 4.137C9.0719 4.045 8.81757 3.99933 8.55023 4C8.30023 4 8.05023 4.046 7.80023 4.138C7.55023 4.23 7.32523 4.37567 7.12523 4.575L3.60023 8.125C3.45023 8.275 3.32523 8.45 3.22523 8.65C3.12523 8.85 3.05857 9.05 3.02523 9.25C2.9919 9.45 2.9919 9.65433 3.02523 9.863C3.05857 10.0717 3.12523 10.2673 3.22523 10.45L1.77523 11.9C1.4919 11.5167 1.28357 11.096 1.15023 10.638C1.0169 10.18 0.966901 9.71733 1.00023 9.25C1.03357 8.78333 1.15023 8.329 1.35023 7.887C1.55023 7.445 1.82523 7.04933 2.17523 6.7L5.70023 3.175C6.10023 2.79167 6.54623 2.5 7.03823 2.3C7.53023 2.1 8.03424 2 8.55023 2C9.0669 2 9.57123 2.1 10.0632 2.3C10.5552 2.5 10.9926 2.79167 11.3752 3.175L11.6502 3.45L11.9252 3.175C12.3252 2.79167 12.7712 2.5 13.2632 2.3C13.7552 2.1 14.2592 2 14.7752 2C15.2919 2 15.7962 2.1 16.2882 2.3C16.7802 2.5 17.2176 2.79167 17.6002 3.175L21.8252 7.4C22.2086 7.78333 22.5002 8.225 22.7002 8.725C22.9002 9.225 23.0002 9.73333 23.0002 10.25C23.0002 10.7667 22.9002 11.271 22.7002 11.763C22.5002 12.255 22.2086 12.6923 21.8252 13.075L13.6252 21.25C13.3919 21.4833 13.1209 21.6667 12.8122 21.8C12.5036 21.9333 12.1829 22 11.8502 22Z" fill="#006FEC"/>
</g>
</svg>
