<svg width="24" height="24" viewBox="0 0 24 24" fill="none" xmlns="http://www.w3.org/2000/svg">
<g id="fluent-mdl2:user-warning" clip-path="url(#clip0_4518_13953)">
<path id="Vector" d="M14.2852 12.2344L13.5938 13.6172C12.9297 13.1016 12.2109 12.7031 11.4375 12.4219C10.6641 12.1406 9.85156 12 9 12C8.3125 12 7.64844 12.0898 7.00781 12.2695C6.36719 12.4492 5.76953 12.6992 5.21484 13.0195C4.66016 13.3398 4.15625 13.7305 3.70312 14.1914C3.25 14.6523 2.85938 15.1602 2.53125 15.7148C2.20312 16.2695 1.94922 16.8672 1.76953 17.5078C1.58984 18.1484 1.5 18.8125 1.5 19.5H0C0 18.5625 0.136719 17.6602 0.410156 16.793C0.683594 15.9258 1.07812 15.125 1.59375 14.3906C2.10938 13.6562 2.71875 13.0039 3.42188 12.4336C4.125 11.8633 4.92188 11.4141 5.8125 11.0859C4.92969 10.5078 4.24219 9.78125 3.75 8.90625C3.25781 8.03125 3.00781 7.0625 3 6C3 5.17188 3.15625 4.39453 3.46875 3.66797C3.78125 2.94141 4.20703 2.30469 4.74609 1.75781C5.28516 1.21094 5.92188 0.78125 6.65625 0.46875C7.39062 0.15625 8.17188 0 9 0C9.82812 0 10.6055 0.15625 11.332 0.46875C12.0586 0.78125 12.6953 1.20703 13.2422 1.74609C13.7891 2.28516 14.2188 2.92188 14.5312 3.65625C14.8438 4.39062 15 5.17188 15 6C15 6.51562 14.9375 7.01953 14.8125 7.51172C14.6875 8.00391 14.5 8.46875 14.25 8.90625C14 9.34375 13.707 9.74609 13.3711 10.1133C13.0352 10.4805 12.6406 10.8047 12.1875 11.0859C12.9375 11.375 13.6367 11.7578 14.2852 12.2344ZM4.5 6C4.5 6.625 4.61719 7.20703 4.85156 7.74609C5.08594 8.28516 5.40625 8.76172 5.8125 9.17578C6.21875 9.58984 6.69531 9.91406 7.24219 10.1484C7.78906 10.3828 8.375 10.5 9 10.5C9.61719 10.5 10.1992 10.3828 10.7461 10.1484C11.293 9.91406 11.7695 9.59375 12.1758 9.1875C12.582 8.78125 12.9062 8.30469 13.1484 7.75781C13.3906 7.21094 13.5078 6.625 13.5 6C13.5 5.38281 13.3828 4.80078 13.1484 4.25391C12.9141 3.70703 12.5938 3.23047 12.1875 2.82422C11.7812 2.41797 11.3008 2.09375 10.7461 1.85156C10.1914 1.60938 9.60938 1.49219 9 1.5C8.375 1.5 7.79297 1.61719 7.25391 1.85156C6.71484 2.08594 6.23828 2.40625 5.82422 2.8125C5.41016 3.21875 5.08594 3.69922 4.85156 4.25391C4.61719 4.80859 4.5 5.39062 4.5 6ZM16.5 16.5H18V20.25H16.5V16.5ZM16.5 22.5V21H18V22.5H16.5ZM17.25 10.5L24 24H10.5L17.25 10.5ZM17.25 13.4297L12.6211 22.6875H21.8789L17.25 13.4297Z" fill="#006FEC"/>
</g>
<defs>
<clipPath id="clip0_4518_13953">
<rect width="24" height="24" fill="white"/>
</clipPath>
</defs>
</svg>
