<svg width="24" height="24" viewBox="0 0 24 24" fill="none" xmlns="http://www.w3.org/2000/svg">
<g id="openmoji:collaboration">
<g id="Group">
<path id="Vector" d="M7 6.66675C7.55228 6.66675 8 6.21903 8 5.66675C8 5.11446 7.55228 4.66675 7 4.66675C6.44772 4.66675 6 5.11446 6 5.66675C6 6.21903 6.44772 6.66675 7 6.66675Z" fill="#006FEC" fill-opacity="0.5"/>
<path id="Vector_2" d="M18.6641 9.77466C19.2163 9.77466 19.6641 9.32694 19.6641 8.77466C19.6641 8.22237 19.2163 7.77466 18.6641 7.77466C18.1118 7.77466 17.6641 8.22237 17.6641 8.77466C17.6641 9.32694 18.1118 9.77466 18.6641 9.77466Z" fill="#006FEC" fill-opacity="0.5"/>
<path id="Vector_3" d="M9.99756 16.6694C10.5498 16.6694 10.9976 16.2217 10.9976 15.6694C10.9976 15.1171 10.5498 14.6694 9.99756 14.6694C9.44527 14.6694 8.99756 15.1171 8.99756 15.6694C8.99756 16.2217 9.44527 16.6694 9.99756 16.6694Z" fill="#006FEC" fill-opacity="0.5"/>
<path id="Vector_4" d="M5.14561 9.03463L6.17261 8.12996L7.78394 8.06396L8.77361 9.0063L9.00161 10.333L4.97461 10.3303L5.14561 9.03463ZM16.8303 12.1433L17.8576 11.2386L19.4689 11.1726L20.4583 12.115L20.6866 13.4416L16.6593 13.4393L16.8303 12.1433ZM8.16161 19.0373L9.18861 18.1326L10.8003 18.0666L11.7896 19.009L12.0176 20.3356L7.99061 20.333L8.16161 19.0373Z" fill="#006FEC" fill-opacity="0.5"/>
</g>
<g id="Group_2">
<path id="Vector_5" d="M7 6.66675C7.55228 6.66675 8 6.21903 8 5.66675C8 5.11446 7.55228 4.66675 7 4.66675C6.44772 4.66675 6 5.11446 6 5.66675C6 6.21903 6.44772 6.66675 7 6.66675Z" stroke="#006FEC" stroke-width="1.5" stroke-miterlimit="10"/>
<path id="Vector_6" d="M5 10.0001C5 10.0001 5.33333 8.56307 6 8.22974C6.66667 7.8964 7.33333 7.8964 8 8.22974C8.66667 8.56307 9 10.0001 9 10.0001" stroke="#006FEC" stroke-width="1.5" stroke-miterlimit="10" stroke-linecap="round" stroke-linejoin="round"/>
<path id="Vector_7" d="M18.6641 9.77466C19.2163 9.77466 19.6641 9.32694 19.6641 8.77466C19.6641 8.22237 19.2163 7.77466 18.6641 7.77466C18.1118 7.77466 17.6641 8.22237 17.6641 8.77466C17.6641 9.32694 18.1118 9.77466 18.6641 9.77466Z" stroke="#006FEC" stroke-width="1.5" stroke-miterlimit="10"/>
<path id="Vector_8" d="M16.6641 13.108C16.6641 13.108 16.9974 11.671 17.6641 11.3376C18.3307 11.0043 18.9974 11.0043 19.6641 11.3376C20.3307 11.671 20.6641 13.1076 20.6641 13.1076" stroke="#006FEC" stroke-width="1.5" stroke-miterlimit="10" stroke-linecap="round" stroke-linejoin="round"/>
<path id="Vector_9" d="M9.99756 16.6694C10.5498 16.6694 10.9976 16.2217 10.9976 15.6694C10.9976 15.1171 10.5498 14.6694 9.99756 14.6694C9.44527 14.6694 8.99756 15.1171 8.99756 15.6694C8.99756 16.2217 9.44527 16.6694 9.99756 16.6694Z" stroke="#006FEC" stroke-width="1.5" stroke-miterlimit="10"/>
<path id="Vector_10" d="M7.99767 20.0027C7.99767 20.0027 8.331 18.5657 8.99767 18.2323C9.66433 17.899 10.331 17.899 10.9977 18.2323C11.6643 18.5657 11.9977 20.0023 11.9977 20.0023M17.5173 6.712C16.111 5.053 14.0117 4 11.6667 4C10.7433 4 9.85867 4.16333 9.039 4.46233M13.1443 19.191C15.882 18.6563 18.0983 16.6653 18.9533 14.057M4.029 10.996C4.00966 11.219 3.99999 11.4428 4 11.6667C4 14.3247 5.35267 16.6667 7.40733 18.0423" stroke="#006FEC" stroke-width="1.5" stroke-miterlimit="10" stroke-linecap="round" stroke-linejoin="round"/>
</g>
</g>
</svg>
