<svg width="24" height="24" viewBox="0 0 24 24" fill="none" xmlns="http://www.w3.org/2000/svg">
<g id="material-symbols:communication">
<path id="Vector" d="M10.2 13.2L9.15 12.15C9.28333 11.9667 9.375 11.779 9.425 11.587C9.475 11.395 9.5 11.1994 9.5 11C9.5 10.8 9.475 10.604 9.425 10.412C9.375 10.22 9.28333 10.041 9.15 9.87505L10.2 8.80005C10.4667 9.11672 10.6667 9.46672 10.8 9.85005C10.9333 10.2334 11 10.6167 11 11C11 11.3834 10.9333 11.7627 10.8 12.138C10.6667 12.5134 10.4667 12.8674 10.2 13.2ZM12.325 15.35L11.25 14.275C11.6667 13.8084 11.9793 13.2917 12.188 12.725C12.3967 12.1584 12.5007 11.5834 12.5 11C12.5 10.4167 12.396 9.84605 12.188 9.28805C11.98 8.73005 11.6673 8.21738 11.25 7.75005L12.325 6.67505C12.8917 7.29172 13.3127 7.97105 13.588 8.71305C13.8633 9.45505 14.0007 10.2174 14 11C14 11.7834 13.8623 12.55 13.587 13.3C13.3117 14.05 12.891 14.7334 12.325 15.35ZM5 12C4.45 12 3.979 11.804 3.587 11.412C3.195 11.02 2.99933 10.5494 3 10C3 9.45005 3.196 8.97905 3.588 8.58705C3.98 8.19505 4.45067 7.99938 5 8.00005C5.55 8.00005 6.021 8.19605 6.413 8.58805C6.805 8.98005 7.00067 9.45072 7 10C7 10.55 6.804 11.021 6.412 11.413C6.02 11.805 5.54933 12.0007 5 12ZM1 16V15.425C1 15.025 1.10833 14.6584 1.325 14.325C1.54167 13.9917 1.84167 13.7417 2.225 13.575C2.65833 13.3917 3.10433 13.25 3.563 13.15C4.02167 13.05 4.50067 13 5 13C5.5 13 5.97933 13.05 6.438 13.15C6.89667 13.25 7.34233 13.3917 7.775 13.575C8.15833 13.7417 8.45833 13.9917 8.675 14.325C8.89167 14.6584 9 15.025 9 15.425V16H1ZM19 12C18.45 12 17.979 11.804 17.587 11.412C17.195 11.02 16.9993 10.5494 17 10C17 9.45005 17.196 8.97905 17.588 8.58705C17.98 8.19505 18.4507 7.99938 19 8.00005C19.55 8.00005 20.021 8.19605 20.413 8.58805C20.805 8.98005 21.0007 9.45072 21 10C21 10.55 20.804 11.021 20.412 11.413C20.02 11.805 19.5493 12.0007 19 12ZM15 16V15.425C15 15.025 15.1083 14.6584 15.325 14.325C15.5417 13.9917 15.8417 13.7417 16.225 13.575C16.6583 13.3917 17.104 13.25 17.562 13.15C18.02 13.05 18.4993 13 19 13C19.5 13 19.979 13.05 20.437 13.15C20.895 13.25 21.341 13.3917 21.775 13.575C22.1583 13.7417 22.4583 13.9917 22.675 14.325C22.8917 14.6584 23 15.025 23 15.425V16H15Z" fill="#006FEC"/>
</g>
</svg>
