<svg width="24" height="24" viewBox="0 0 24 24" fill="none" xmlns="http://www.w3.org/2000/svg">
<g id="clarity:camera-solid" clip-path="url(#clip0_4518_13930)">
<path id="Vector" d="M21.3335 5.33342H16.4668L15.7602 3.52008C15.6635 3.2695 15.4934 3.05397 15.2721 2.9017C15.0508 2.74944 14.7888 2.66754 14.5202 2.66675H9.48016C9.21044 2.6662 8.94689 2.74746 8.72431 2.89982C8.50173 3.05217 8.3306 3.26844 8.2335 3.52008L7.5335 5.33342H2.66683C2.31321 5.33342 1.97407 5.47389 1.72402 5.72394C1.47397 5.97399 1.3335 6.31313 1.3335 6.66675V20.0001C1.3335 20.3537 1.47397 20.6928 1.72402 20.9429C1.97407 21.1929 2.31321 21.3334 2.66683 21.3334H21.3335C21.6871 21.3334 22.0263 21.1929 22.2763 20.9429C22.5264 20.6928 22.6668 20.3537 22.6668 20.0001V6.66675C22.6668 6.31313 22.5264 5.97399 22.2763 5.72394C22.0263 5.47389 21.6871 5.33342 21.3335 5.33342ZM4.1135 9.08675C3.97205 9.08675 3.83639 9.03056 3.73637 8.93054C3.63635 8.83052 3.58016 8.69487 3.58016 8.55342C3.58016 8.41197 3.63635 8.27631 3.73637 8.17629C3.83639 8.07627 3.97205 8.02008 4.1135 8.02008H5.7135C5.85494 8.02008 5.9906 8.07627 6.09062 8.17629C6.19064 8.27631 6.24683 8.41197 6.24683 8.55342C6.24683 8.69487 6.19064 8.83052 6.09062 8.93054C5.9906 9.03056 5.85494 9.08675 5.7135 9.08675H4.1135ZM12.0002 18.6668C10.8135 18.6668 9.65344 18.3149 8.66674 17.6556C7.68005 16.9963 6.91101 16.0592 6.45689 14.9629C6.00276 13.8665 5.88394 12.6601 6.11545 11.4962C6.34696 10.3323 6.91841 9.26323 7.75752 8.42411C8.59664 7.58499 9.66573 7.01355 10.8296 6.78204C11.9935 6.55053 13.1999 6.66935 14.2963 7.12347C15.3926 7.5776 16.3297 8.34663 16.989 9.33333C17.6483 10.32 18.0002 11.4801 18.0002 12.6668C18.0002 14.258 17.368 15.7842 16.2428 16.9094C15.1176 18.0346 13.5915 18.6668 12.0002 18.6668Z" fill="#006FEC"/>
<path id="Vector_2" d="M7.40674 12.7068C7.40808 13.6063 7.66678 14.4866 8.1523 15.2438C8.63781 16.001 9.32987 16.6035 10.1467 16.9801L10.8734 15.8201C10.4308 15.6317 10.0342 15.3498 9.71081 14.9937C9.38745 14.6375 9.145 14.2156 9.00012 13.7569C8.85523 13.2982 8.81134 12.8136 8.87146 12.3363C8.93158 11.8591 9.09429 11.4005 9.3484 10.992C9.60252 10.5836 9.94203 10.235 10.3436 9.97018C10.7452 9.70537 11.1993 9.5306 11.6748 9.45789C12.1503 9.38519 12.636 9.41626 13.0983 9.54898C13.5607 9.68169 13.9889 9.91291 14.3534 10.2268L15.0801 9.05342C14.3896 8.49281 13.5544 8.13933 12.6712 8.03391C11.7881 7.9285 10.8932 8.07547 10.0901 8.4578C9.2871 8.84013 8.60883 9.44218 8.13391 10.1942C7.65899 10.9462 7.40686 11.8173 7.40674 12.7068Z" fill="#006FEC"/>
</g>
<defs>
<clipPath id="clip0_4518_13930">
<rect width="24" height="24" fill="white"/>
</clipPath>
</defs>
</svg>
