<svg width="24" height="24" viewBox="0 0 24 24" fill="none" xmlns="http://www.w3.org/2000/svg">
<g id="clarity:compass-solid" clip-path="url(#clip0_4518_14037)">
<path id="Vector" d="M12.0002 1.33325C9.8905 1.33325 7.82821 1.95884 6.07409 3.13091C4.31996 4.30298 2.95279 5.96888 2.14545 7.91796C1.33812 9.86704 1.12688 12.0118 1.53846 14.0809C1.95003 16.15 2.96594 18.0506 4.4577 19.5424C5.94946 21.0342 7.85007 22.0501 9.9192 22.4616C11.9883 22.8732 14.133 22.662 16.0821 21.8546C18.0312 21.0473 19.6971 19.6801 20.8692 17.926C22.0412 16.1719 22.6668 14.1096 22.6668 11.9999C22.6668 9.17094 21.543 6.45783 19.5426 4.45745C17.5423 2.45706 14.8291 1.33325 12.0002 1.33325ZM4.3135 12.6666H2.70017C2.70017 12.4466 2.66683 12.2266 2.66683 11.9999C2.66683 11.7733 2.66683 11.5533 2.70017 11.3333H4.3135V12.6666ZM11.3335 2.69992C11.5535 2.69992 11.7735 2.66659 12.0002 2.66659C12.2268 2.66659 12.4468 2.66659 12.6668 2.69992V4.31325H11.3335V2.69992ZM12.6668 21.2999C12.4468 21.2999 12.2268 21.3333 12.0002 21.3333C11.7735 21.3333 11.5535 21.3333 11.3335 21.2999V19.6866H12.6668V21.2999ZM18.0002 17.5799C17.9454 17.6451 17.8709 17.6907 17.788 17.71C17.705 17.7292 17.6181 17.721 17.5402 17.6866L10.5002 13.5866L6.40017 6.54659C6.2335 6.23325 6.66017 5.81325 6.9735 5.98659L13.8868 10.2066L18.1068 17.1199C18.1412 17.1978 18.1494 17.2848 18.1302 17.3677C18.111 17.4507 18.0653 17.5251 18.0002 17.5799ZM19.6868 12.6666V11.3333H21.3002C21.3002 11.5533 21.3335 11.7733 21.3335 11.9999C21.3335 12.2266 21.3335 12.4466 21.3002 12.6666H19.6868Z" fill="#006FEC"/>
<path id="Vector_2" d="M11.1802 12.9001L16.2335 15.8467L13.2002 10.8867L11.1802 12.9001Z" fill="#006FEC"/>
</g>
<defs>
<clipPath id="clip0_4518_14037">
<rect width="24" height="24" fill="white"/>
</clipPath>
</defs>
</svg>
