<svg width="24" height="24" viewBox="0 0 24 24" fill="none" xmlns="http://www.w3.org/2000/svg">
<g id="game-icons:puzzle" clip-path="url(#clip0_4518_13659)">
<path id="Vector" d="M8.0625 0.84373C8.02969 0.930449 7.99219 1.02186 7.96406 1.12029C7.8 1.63264 7.725 2.24014 7.94062 2.68076C7.96406 2.72857 7.97813 2.74076 7.99688 2.77779C8.22656 2.58701 8.60625 2.34889 9.15937 2.36576C9.61875 2.37936 9.99844 2.64795 10.2188 2.98123C10.4391 3.31451 10.5422 3.71061 10.5609 4.10623C10.5797 4.50139 10.5188 4.89842 10.35 5.24529C10.1813 5.59217 9.86719 5.91092 9.43594 5.97186C8.72813 6.07498 8.21719 5.68592 7.95938 5.51717C7.91719 5.49373 7.89844 5.48904 7.875 5.47498C7.86094 5.49842 7.85625 5.49842 7.83281 5.55467C7.80938 5.60154 7.79063 5.93904 7.88906 6.37967C7.92656 6.53904 7.96875 6.71248 8.025 6.8906C8.99062 6.86717 9.9375 6.94217 10.6172 7.20467C10.9641 7.33592 11.2078 7.4531 11.3766 7.69686C11.5453 7.94061 11.5031 8.26404 11.4328 8.44686C11.2969 8.81248 11.1281 9.01873 11.1797 9.48748C11.2031 9.6656 11.2547 9.72186 11.3672 9.78279C11.4797 9.84373 11.6719 9.87654 11.8781 9.84373C12.2906 9.78748 12.6703 9.50623 12.7125 9.21561C12.7734 8.79842 12.6844 8.80779 12.5297 8.61561C12.4922 8.56404 12.4359 8.50311 12.3937 8.38592C12.3516 8.26404 12.3609 8.06717 12.4313 7.94061C12.5672 7.68748 12.7359 7.61717 12.9984 7.47654C13.4109 7.25154 13.8703 7.29842 14.3719 7.37811C14.7234 7.43435 15.1031 7.52342 15.4875 7.62186C15.3797 7.19529 15.2813 6.77342 15.2203 6.37967C15.1406 5.84998 15.1078 5.36248 15.3469 4.93123C15.4312 4.78592 15.4969 4.67436 15.5812 4.57686C15.6609 4.47936 15.7594 4.37201 15.9516 4.33123C16.1437 4.28998 16.3453 4.39217 16.4297 4.47232C16.5188 4.55248 16.5562 4.61764 16.5938 4.67436C16.6687 4.78592 16.7297 4.87029 16.7859 4.90779C16.8422 4.94998 16.8844 4.98279 17.0578 4.95467C17.175 4.94061 17.2875 4.86092 17.3906 4.69217C17.4984 4.52529 17.5734 4.27639 17.5875 4.03498C17.5969 3.79357 17.55 3.56529 17.4656 3.42936C17.3859 3.29389 17.3156 3.23529 17.1328 3.22498C16.8891 3.21092 16.7906 3.25686 16.7344 3.29295C16.6781 3.32857 16.6547 3.36326 16.6078 3.44342C16.5797 3.48326 16.575 3.54139 16.425 3.64545C16.35 3.69748 16.1953 3.74529 16.0687 3.71811C15.9375 3.69045 15.8672 3.62576 15.8203 3.57889C15.6375 3.39279 15.6141 3.26998 15.4688 2.9667C15.1172 2.23498 15.1547 1.44607 15.2812 0.843262L8.0625 0.84373ZM16.1766 0.84373C16.0547 1.35326 15.9703 2.06154 16.2281 2.60107C16.2328 2.60717 16.2328 2.60904 16.2375 2.61514C16.2516 2.60529 16.2609 2.59451 16.275 2.58514C16.4953 2.44404 16.8 2.36061 17.1797 2.38264C17.625 2.40795 17.9953 2.66951 18.1922 2.99857C18.3891 3.32717 18.45 3.70826 18.4266 4.08139C18.4078 4.45451 18.3047 4.82342 18.1078 5.14217C17.9109 5.45623 17.5922 5.73279 17.1797 5.78904C16.8234 5.84061 16.5 5.74686 16.2844 5.59217C16.1953 5.52654 16.1297 5.45623 16.0687 5.38592C16.0219 5.52186 15.9937 5.83592 16.0547 6.25779C16.125 6.71717 16.2703 7.27967 16.4203 7.85154C16.4203 7.85623 16.4203 7.86092 16.425 7.86092C16.8328 7.96873 17.2313 8.06248 17.5875 8.11873C18.0656 8.19373 18.4594 8.18904 18.6469 8.11873C18.7406 8.08592 18.7734 8.06248 18.8109 8.03904C18.8109 8.03436 18.8109 8.03436 18.8063 8.02967C18.6234 7.77186 18.1453 7.23748 18.2016 6.44061C18.2344 5.98592 18.5484 5.61561 18.9094 5.46561C19.0922 5.39061 19.2844 5.35311 19.4766 5.34373C19.6734 5.33436 19.8703 5.34842 20.0672 5.38592C20.4563 5.45623 20.8406 5.61092 21.1641 5.84061C21.4875 6.07029 21.7641 6.38904 21.825 6.81561C21.9188 7.46248 21.5766 7.91248 21.3891 8.13748L21.3984 8.14686C21.675 8.27811 22.2984 8.21248 22.8328 8.03904C22.9453 8.00623 23.0531 7.96404 23.1562 7.92654V0.84373H16.1766ZM19.6125 6.18748C19.4578 6.18748 19.3219 6.21092 19.2328 6.24373C19.0922 6.30467 19.0547 6.33279 19.0453 6.49686C19.0125 6.94686 19.2563 7.20467 19.4953 7.54217C19.5562 7.62654 19.6172 7.71561 19.6641 7.83279C19.7156 7.95467 19.7437 8.13279 19.6922 8.30154C19.5797 8.64373 19.2938 8.77967 18.9375 8.91092C18.4875 9.07967 17.9906 9.03748 17.4516 8.9531C17.1937 8.91092 16.9266 8.85467 16.6547 8.78904C16.7156 9.05154 16.7719 9.31404 16.8094 9.56717C16.8938 10.1109 16.9266 10.6172 16.7203 11.0672C16.575 11.3906 16.5281 11.5734 16.2609 11.7469C16.1297 11.8312 15.8812 11.8453 15.7453 11.7844C15.6141 11.7234 15.5625 11.6578 15.5109 11.6062C15.3141 11.4047 15.2719 11.2594 14.7891 11.2875C14.6156 11.2969 14.5641 11.3437 14.4938 11.4844C14.4234 11.6203 14.3859 11.8594 14.4094 12.1078C14.4375 12.3609 14.5219 12.614 14.6297 12.7734C14.7328 12.9375 14.8172 12.975 14.8781 12.975C15.2062 12.9797 15.3844 12.8203 15.6937 12.6609C15.8484 12.5765 16.1062 12.4781 16.3781 12.5859C16.6453 12.6937 16.7859 12.914 16.9219 13.1906C17.1516 13.664 17.25 14.3297 17.2828 15.0703C17.325 15.0656 17.3719 15.0562 17.4141 15.0469C17.9391 14.9578 18.4266 14.9156 18.8766 15.0797C19.0547 15.1453 19.1906 15.2062 19.3172 15.2906C19.4391 15.375 19.575 15.5062 19.6172 15.6984C19.6594 15.8953 19.5844 16.0687 19.5187 16.1719C19.4531 16.2797 19.3828 16.3453 19.3172 16.4156C19.05 16.6828 18.8297 16.8469 18.8812 17.2172C18.9 17.3484 18.9844 17.4703 19.1859 17.5875C19.3828 17.7094 19.6781 17.7984 19.9734 17.8219C20.2688 17.8453 20.5594 17.8031 20.7469 17.7234C20.9297 17.6437 20.9812 17.5781 20.9953 17.4797C21.0469 17.1375 20.8547 16.9406 20.6156 16.6219C20.4984 16.4625 20.3297 16.2562 20.3578 15.9328C20.3859 15.6094 20.6344 15.375 20.9437 15.1969C21.6422 14.8031 22.4578 14.9672 23.0859 15.1687C23.1094 15.1781 23.1328 15.1828 23.1562 15.1922V8.82186C23.1328 8.83123 23.1141 8.83592 23.0906 8.84529C22.4766 9.04217 21.7078 9.23435 21.0281 8.90154C20.8922 8.83592 20.7797 8.77029 20.6766 8.68123C20.5734 8.58748 20.475 8.45623 20.4469 8.28748C20.4234 8.11873 20.4797 7.96873 20.5312 7.87498C20.5875 7.78123 20.6437 7.71561 20.6906 7.65467C20.8969 7.42029 21.0469 7.31248 20.9906 6.93748C20.9766 6.82498 20.8781 6.67029 20.6766 6.52498C20.475 6.38436 20.1891 6.26717 19.9125 6.21561C19.8094 6.19686 19.7062 6.18748 19.6125 6.18748ZM8.31094 7.73435H8.28281L8.34375 7.92654C8.51719 8.48904 8.69531 9.06561 8.79375 9.59998C8.8875 10.1344 8.92969 10.6359 8.7 11.0859C8.62031 11.2453 8.54531 11.3672 8.45156 11.4797C8.35781 11.5875 8.2125 11.7094 8.00156 11.7187C7.79531 11.7281 7.64062 11.6156 7.55625 11.5312C7.47656 11.4515 7.425 11.3812 7.37812 11.3109C7.275 11.1703 7.18594 11.0484 7.0875 10.9781C6.99375 10.9031 6.90938 10.8609 6.70312 10.8844C6.55781 10.9031 6.44531 10.9828 6.32812 11.175C6.21562 11.3719 6.13594 11.6625 6.11719 11.9578C6.10313 12.2531 6.15469 12.5484 6.24375 12.7406C6.33281 12.9328 6.41719 12.9984 6.52969 13.0125C6.90469 13.0687 7.11562 12.8765 7.43906 12.6515C7.59844 12.539 7.79531 12.3844 8.11406 12.4078C8.43281 12.4312 8.67188 12.6797 8.83594 12.975C9.06563 13.3969 9.00937 13.8609 8.925 14.3765C8.83594 14.8875 8.68125 15.4594 8.52656 16.0312C8.51719 16.064 8.50781 16.0922 8.49844 16.125C9.31875 16.0781 10.0875 15.9375 10.4578 15.7547C10.4625 15.7547 10.4625 15.7547 10.4625 15.75C10.3266 15.539 10.2469 15.2437 10.2656 14.8734C10.2844 14.4234 10.5375 14.0531 10.8516 13.8375C11.1656 13.6219 11.5359 13.5328 11.9016 13.5187C12.2672 13.5047 12.6281 13.5656 12.9375 13.7344C13.2516 13.9031 13.5328 14.2265 13.5422 14.639C13.5516 15.1219 13.3641 15.4687 13.2656 15.6281C13.3125 15.6656 13.3781 15.7125 13.4813 15.7687C13.5703 15.8203 13.8844 15.8578 14.3063 15.7875C14.7281 15.7219 15.2531 15.5812 15.7922 15.4359C16.0078 15.3797 16.2234 15.3187 16.4391 15.2625C16.4063 14.4984 16.2891 13.8187 16.1625 13.5609C16.125 13.4765 16.0969 13.4437 16.0734 13.4156C15.8953 13.5094 15.4781 13.8281 14.8641 13.8187C14.4469 13.814 14.1234 13.5422 13.9219 13.2375C13.725 12.9328 13.6078 12.5672 13.5703 12.1969C13.5328 11.8219 13.5656 11.4375 13.7438 11.0953C13.9219 10.7531 14.2922 10.4719 14.7422 10.4437C15.2859 10.4156 15.6656 10.6406 15.8953 10.8234C15.9141 10.7812 15.9328 10.7672 15.9562 10.7156C16.0266 10.5562 16.05 10.1719 15.975 9.69373C15.9234 9.35154 15.8344 8.95779 15.7313 8.55467C15.1875 8.41404 14.6672 8.27811 14.2406 8.21248C13.8047 8.14217 13.4766 8.17967 13.4016 8.21717C13.3594 8.24061 13.35 8.25467 13.3172 8.27342C13.4531 8.48904 13.6172 8.85467 13.5469 9.33748C13.4297 10.1344 12.6891 10.5844 11.9953 10.6828C11.6484 10.7297 11.2828 10.6969 10.9641 10.5234C10.6453 10.35 10.3875 10.0031 10.3406 9.58123C10.2609 8.85467 10.575 8.33435 10.6406 8.15154C10.6078 8.12811 10.5234 8.07186 10.3172 7.99217C9.9 7.83279 9.12656 7.73904 8.31094 7.73435ZM7.40625 7.77186C6.525 7.84217 5.70937 8.02967 5.39062 8.2031C5.30625 8.24998 5.26875 8.28279 5.24063 8.31092C5.3625 8.49373 5.74219 8.93435 5.68594 9.58592C5.65313 9.99373 5.35313 10.3078 5.02969 10.4484C4.70625 10.5937 4.34578 10.6219 3.98531 10.5797C3.62531 10.5328 3.26344 10.4109 2.95688 10.1953C2.65031 9.97498 2.39531 9.63279 2.34234 9.20623C2.29547 8.83123 2.38125 8.50779 2.52797 8.28279C2.58234 8.19842 2.64187 8.13279 2.7 8.07654C2.69297 8.07186 2.6925 8.07186 2.685 8.06717C2.25422 7.84686 1.63313 7.89373 1.10906 8.03904C1.01484 8.06248 0.927656 8.09061 0.84375 8.11873V15.914C0.926719 15.9422 1.01344 15.9703 1.10672 15.9937C1.62891 16.139 2.25 16.1906 2.68875 15.9703C2.77547 15.9281 2.80922 15.9 2.85562 15.8672C2.68312 15.6515 2.37234 15.2109 2.44266 14.5547C2.49 14.1187 2.76234 13.7719 3.08953 13.575C3.41672 13.3781 3.79547 13.3031 4.16906 13.3031C4.54219 13.3031 4.9125 13.3828 5.23594 13.5656C5.55469 13.7437 5.84063 14.0578 5.89688 14.4703C5.97656 15.0797 5.65313 15.5015 5.47969 15.7078C5.50781 15.7265 5.5125 15.7359 5.56406 15.764C5.86406 15.9328 6.71719 16.0969 7.62188 16.1297C7.65469 16.0219 7.68281 15.9187 7.71094 15.8109C7.86562 15.239 8.01563 14.6812 8.09063 14.2359C8.16563 13.7859 8.13281 13.4484 8.09531 13.3828C8.05781 13.3125 8.04375 13.2984 8.02969 13.2797C8.00625 13.2937 7.97344 13.3078 7.92188 13.3453C7.65469 13.5281 7.13906 13.9547 6.40781 13.8469C5.96719 13.7859 5.64844 13.4531 5.47969 13.0969C5.31094 12.7359 5.25469 12.3234 5.27812 11.9156C5.29688 11.5078 5.39531 11.0953 5.60156 10.7484C5.80781 10.3969 6.15938 10.0969 6.61406 10.0453C7.0125 10.0031 7.35938 10.125 7.59375 10.3031C7.7625 10.425 7.87031 10.5609 7.95938 10.6781C8.02031 10.5328 8.04375 10.1953 7.95938 9.74998C7.87969 9.29061 7.71094 8.73748 7.5375 8.17967C7.49531 8.04373 7.44844 7.90779 7.40625 7.77186ZM4.16484 14.1469C3.91828 14.1469 3.67688 14.2031 3.52313 14.2969C3.36938 14.3906 3.29953 14.4797 3.28172 14.6437C3.23344 15.0984 3.39234 15.1875 3.59531 15.4453C3.64641 15.5109 3.70594 15.5859 3.75187 15.7078C3.79828 15.8297 3.80578 16.0219 3.73922 16.1719C3.60703 16.4672 3.38672 16.5656 3.06563 16.7297C2.32406 17.0953 1.50516 16.9781 0.882187 16.8094C0.869062 16.8047 0.856875 16.8 0.84375 16.7953V23.1562H7.23281C7.11094 22.6078 7.0875 21.9187 7.44375 21.2906C7.59844 21.0187 7.66875 20.864 7.87031 20.7187C7.96875 20.6437 8.16094 20.5828 8.31094 20.6203C8.46094 20.6531 8.53594 20.7234 8.58281 20.7656C8.67656 20.85 8.70469 20.8828 8.75625 20.9062C8.80781 20.9297 8.87812 20.9578 9.06562 20.9344C9.14062 20.925 9.25781 20.8547 9.37031 20.6531C9.4875 20.4562 9.57656 20.1609 9.6 19.8703C9.62344 19.5844 9.57656 19.3031 9.49688 19.139C9.41719 18.975 9.36094 18.9234 9.19687 18.914C8.98125 18.9 8.8875 18.9515 8.79375 19.0265C8.7 19.1015 8.62031 19.2234 8.54531 19.3547C8.50313 19.4156 8.47031 19.4812 8.4 19.5656C8.36719 19.6078 8.32031 19.6594 8.23125 19.7062C8.14688 19.7578 7.99687 19.7859 7.875 19.7531C7.62656 19.6922 7.56563 19.5422 7.50469 19.4344C7.44375 19.3219 7.39219 19.2 7.32656 19.0312C7.15781 18.5765 7.20469 18.0703 7.29844 17.5219C7.33125 17.3437 7.36875 17.1562 7.41094 16.9687C6.52031 16.9359 5.70469 16.8094 5.15156 16.5047C4.87031 16.3453 4.64906 16.2094 4.56938 15.9C4.53 15.7453 4.56469 15.5765 4.61625 15.4734C4.66688 15.3656 4.725 15.3 4.77188 15.239C4.97344 15 5.10469 14.9297 5.05781 14.5781C5.04375 14.4797 4.9875 14.3906 4.82344 14.3015C4.60219 14.2031 4.36734 14.1469 4.16484 14.1469ZM21.9188 15.8156C21.6984 15.8156 21.5016 15.8531 21.3563 15.9328C21.2766 15.9797 21.2531 16.0031 21.2297 16.0172C21.2437 16.0406 21.2531 16.0687 21.2906 16.1203C21.4828 16.3734 21.9375 16.875 21.8297 17.6015C21.7688 18.0375 21.4312 18.3515 21.075 18.5015C20.7141 18.6515 20.3109 18.6937 19.9031 18.6609C19.5 18.6281 19.0969 18.5203 18.75 18.314C18.4078 18.1078 18.1031 17.7703 18.0469 17.3297C17.9484 16.6172 18.3891 16.1484 18.6422 15.8953C18.6188 15.8859 18.6187 15.8859 18.5859 15.8719C18.4031 15.8062 18.0187 15.8015 17.5547 15.8812C17.4703 15.8953 17.3813 15.9094 17.2922 15.9281C17.2734 16.9453 17.1516 17.9719 16.875 18.6797C16.7391 19.0312 16.6219 19.2844 16.3406 19.4344C16.1953 19.5094 16.0219 19.5281 15.8859 19.5047C15.7547 19.4765 15.6562 19.4297 15.5672 19.3828C15.2156 19.1953 14.9813 18.9844 14.4891 19.0031C14.3156 19.0078 14.3016 19.0359 14.2453 19.1672C14.1937 19.2984 14.1703 19.5515 14.2219 19.814C14.2687 20.0765 14.3813 20.3484 14.5125 20.5265C14.6391 20.7047 14.7562 20.7562 14.8078 20.7609C15.1219 20.7656 15.1406 20.6578 15.375 20.4609C15.4312 20.4094 15.5063 20.3437 15.6375 20.3015C15.7688 20.2594 15.9563 20.2781 16.0828 20.3437C16.3406 20.4797 16.4344 20.6625 16.5984 20.9531C16.9875 21.6422 16.8891 22.4484 16.7484 23.0765C16.7437 23.1047 16.7344 23.1281 16.7297 23.1562H23.1562V16.0875C23.0531 16.05 22.9453 16.0078 22.8328 15.975C22.5328 15.8765 22.2047 15.8203 21.9188 15.8156Z" fill="#006FEC"/>
</g>
<defs>
<clipPath id="clip0_4518_13659">
<rect width="24" height="24" fill="white"/>
</clipPath>
</defs>
</svg>
