<svg width="584" height="417" viewBox="0 0 584 417" fill="none" xmlns="http://www.w3.org/2000/svg">
<path fill-rule="evenodd" clip-rule="evenodd" d="M62.7103 416.917C62.812 416.926 62.812 416.927 62.8119 416.927L62.8121 416.925L62.8125 416.92L62.8148 416.895L62.8299 416.732C62.8442 416.577 62.8673 416.331 62.8994 415.997C62.9637 415.329 63.0641 414.31 63.2035 412.962C63.4824 410.266 63.917 406.258 64.5298 401.127C65.756 390.86 67.6925 376.121 70.5168 358.407C76.181 322.88 85.3447 275.847 99.3454 229.094C101.154 223.055 103.033 217.053 104.986 211.109C163.691 235.147 213.9 240.204 254.575 230.817C300.001 220.333 331.474 192.151 346.223 157.622C360.72 123.687 358.658 84.2311 338.647 52.7796C318.121 20.5193 280.939 0 232.121 0C178.937 0 138.997 32.0359 110.26 71.9754C88.7039 101.934 71.7081 138.558 58.2984 175.913L55.5799 35.8537L0 36.9325L7.33792 414.984L62.7103 416.917ZM124.818 159.158C176.628 180.604 215.341 182.82 242.074 176.65C270.852 170.009 287.583 153.385 295.102 135.784C302.874 117.589 301.27 97.5911 291.745 82.6211C282.735 68.46 264.512 55.5903 232.121 55.5903C204.097 55.5903 178.809 71.8856 155.384 104.443C144.058 120.184 133.892 138.803 124.818 159.158ZM578.467 85.1644H391.109V29.574H578.467V85.1644ZM385.458 248.915H475.125C504.302 248.915 527.954 272.567 527.954 301.744C527.954 330.921 504.302 354.574 475.125 354.574H114.251V410.164H475.125C535.004 410.164 583.545 361.623 583.545 301.744C583.545 241.866 535.004 193.325 475.125 193.325H385.458V248.915Z" fill="url(#paint0_linear_2878_31350)"/>
<defs>
<linearGradient id="paint0_linear_2878_31350" x1="-13.5117" y1="27.5959" x2="614.56" y2="377.025" gradientUnits="userSpaceOnUse">
<stop stop-color="#2400FF"/>
<stop offset="1" stop-color="#EB6F0E"/>
</linearGradient>
</defs>
</svg>
