<svg width="25" height="24" viewBox="0 0 25 24" fill="none" xmlns="http://www.w3.org/2000/svg">
<g clip-path="url(#clip0_1512_5115)">
<path opacity="0.3" d="M5.5 18.08V19H6.42L15.48 9.94002L14.56 9.02002L5.5 18.08Z" fill="white"/>
<path d="M21.21 7.04C21.6 6.65 21.6 6.02 21.21 5.63L18.87 3.29C18.67 3.09 18.42 3 18.16 3C17.9 3 17.65 3.1 17.46 3.29L15.63 5.12L19.38 8.87L21.21 7.04ZM3.5 17.25V21H7.25L18.31 9.94L14.56 6.19L3.5 17.25ZM6.42 19H5.5V18.08L14.56 9.02L15.48 9.94L6.42 19Z" fill="url(#paint0_linear_153_98)"/>
</g>
<defs>
<clipPath id="clip0_1512_5115">
<rect width="24" height="24" fill="white" transform="translate(0.5)"/>
</clipPath>
</defs>
<defs>
<linearGradient id="paint0_linear_153_98" x1="1.5" y1="5" x2="23.5" y2="19" gradientUnits="userSpaceOnUse">
<stop stop-color="#2400FF"/>
<stop offset="1" stop-color="#EB6F0E"/>
</linearGradient>
</defs>
</svg>
