<svg width="25" height="24" viewBox="0 0 25 24" fill="none" xmlns="http://www.w3.org/2000/svg">
<g id="developer_mode" clip-path="url(#clip0_1512_5102)">
<path id="Vector" d="M7.5 5H17.5V7H19.5V3C19.5 1.9 18.6 1.01 17.5 1.01L7.5 1C6.4 1 5.5 1.9 5.5 3V7H7.5V5ZM15.91 16.59L20.5 12L15.91 7.41L14.5 8.83L17.67 12L14.5 15.17L15.91 16.59ZM10.5 15.17L7.33 12L10.5 8.83L9.09 7.41L4.5 12L9.09 16.59L10.5 15.17ZM17.5 19H7.5V17H5.5V21C5.5 22.1 6.4 23 7.5 23H17.5C18.6 23 19.5 22.1 19.5 21V17H17.5V19Z" fill="url(#paint0_linear_153_97)"/>
</g>
<defs>
<clipPath id="clip0_1512_5102">
<rect width="24" height="24" fill="white" transform="translate(0.5)"/>
</clipPath>
</defs>
<defs>
<linearGradient id="paint0_linear_153_97" x1="1.5" y1="5" x2="23.5" y2="19" gradientUnits="userSpaceOnUse">
<stop stop-color="#2400FF"/>
<stop offset="1" stop-color="#EB6F0E"/>
</linearGradient>
</defs>
</svg>
