<svg width="25" height="24" viewBox="0 0 25 24" fill="none" xmlns="http://www.w3.org/2000/svg">
<mask id="mask0_153_99" style="mask-type:luminance" maskUnits="userSpaceOnUse" x="0" y="0" width="25" height="24">
<path d="M24.5 0H0.5V24H24.5V0Z" fill="white"/>
</mask>
<g mask="url(#mask0_153_99)">
<path d="M16.5 11C18.16 11 19.49 9.66 19.49 8C19.49 6.34 18.16 5 16.5 5C14.84 5 13.5 6.34 13.5 8C13.5 9.66 14.84 11 16.5 11ZM8.5 11C10.16 11 11.49 9.66 11.49 8C11.49 6.34 10.16 5 8.5 5C6.84 5 5.5 6.34 5.5 8C5.5 9.66 6.84 11 8.5 11ZM8.5 13C6.17 13 1.5 14.17 1.5 16.5V18C1.5 18.55 1.95 19 2.5 19H14.5C15.05 19 15.5 18.55 15.5 18V16.5C15.5 14.17 10.83 13 8.5 13ZM16.5 13C16.21 13 15.88 13.02 15.53 13.05C15.55 13.06 15.56 13.08 15.57 13.09C16.71 13.92 17.5 15.03 17.5 16.5V18C17.5 18.35 17.43 18.69 17.32 19H22.5C23.05 19 23.5 18.55 23.5 18V16.5C23.5 14.17 18.83 13 16.5 13Z" fill="url(#paint0_linear_153_99)"/>
</g>
<defs>
<linearGradient id="paint0_linear_153_99" x1="1.5" y1="5" x2="23.5" y2="19" gradientUnits="userSpaceOnUse">
<stop stop-color="#2400FF"/>
<stop offset="1" stop-color="#EB6F0E"/>
</linearGradient>
</defs>
</svg>
