<svg width="24" height="24" viewBox="0 0 24 24" fill="none" xmlns="http://www.w3.org/2000/svg">
<path d="M11.2687 1.471C11.568 0.549687 12.8714 0.549685 13.1708 1.471L15.2408 7.84185C15.3747 8.25387 15.7586 8.53283 16.1919 8.53283H22.8906C23.8593 8.53283 24.2621 9.77245 23.4784 10.3419L18.059 14.2793C17.7085 14.5339 17.5618 14.9853 17.6957 15.3973L19.7657 21.7681C20.0651 22.6895 19.0106 23.4556 18.2269 22.8862L12.8075 18.9488C12.457 18.6941 11.9824 18.6941 11.6319 18.9488L6.21257 22.8862C5.42886 23.4556 4.37438 22.6895 4.67373 21.7681L6.74374 15.3973C6.87762 14.9853 6.73096 14.5339 6.38047 14.2793L0.961101 10.3419C0.177388 9.77245 0.580162 8.53283 1.54889 8.53283H8.2476C8.68082 8.53283 9.06478 8.25387 9.19865 7.84185L11.2687 1.471Z" fill="#FFF"/>
</svg>
