<svg width="14" height="14" viewBox="0 0 14 14" fill="none" xmlns="http://www.w3.org/2000/svg">
<path d="M14 1C14 0.446875 13.5531 0 13 0H1C0.446875 0 0 0.446875 0 1C0 1.55313 0.446875 2 1 2H13C13.5531 2 14 1.55313 14 1ZM14 9C14 8.44687 13.5531 8 13 8H1C0.446875 8 0 8.44687 0 9C0 9.55313 0.446875 10 1 10H13C13.5531 10 14 9.55313 14 9ZM0 5C0 5.55313 0.446875 6 1 6H13C13.5531 6 14 5.55313 14 5C14 4.44687 13.5531 4 13 4H1C0.446875 4 0 4.44687 0 5ZM14 13C14 12.4469 13.5531 12 13 12H1C0.446875 12 0 12.4469 0 13C0 13.5531 0.446875 14 1 14H13C13.5531 14 14 13.5531 14 13Z" fill="url(#paint0_linear_54_49)"/>
<defs>
<linearGradient id="paint0_linear_54_49" x1="2" y1="1.5" x2="15.5" y2="14" gradientUnits="userSpaceOnUse">
<stop stop-color="#2400FF"/>
<stop offset="1" stop-color="#EB6F0E"/>
</linearGradient>
</defs>
</svg>
