<svg width="14" height="14" viewBox="0 0 14 14" fill="none" xmlns="http://www.w3.org/2000/svg">
<path d="M11 1C11 0.446875 10.5531 0 10 0H4C3.44687 0 3 0.446875 3 1C3 1.55313 3.44687 2 4 2H10C10.5531 2 11 1.55313 11 1ZM14 5C14 4.44687 13.5531 4 13 4H1C0.446875 4 0 4.44687 0 5C0 5.55313 0.446875 6 1 6H13C13.5531 6 14 5.55313 14 5ZM0 13C0 13.5531 0.446875 14 1 14H13C13.5531 14 14 13.5531 14 13C14 12.4469 13.5531 12 13 12H1C0.446875 12 0 12.4469 0 13ZM11 9C11 8.44687 10.5531 8 10 8H4C3.44687 8 3 8.44687 3 9C3 9.55313 3.44687 10 4 10H10C10.5531 10 11 9.55313 11 9Z" fill="url(#paint0_linear_54_47)"/>
<defs>
<linearGradient id="paint0_linear_54_47" x1="1.5" y1="2.0223e-08" x2="14" y2="14" gradientUnits="userSpaceOnUse">
<stop stop-color="#2400FF"/>
<stop offset="1" stop-color="#EB6F0E"/>
</linearGradient>
</defs>
</svg>
