<svg width="14" height="14" viewBox="0 0 14 14" fill="none" xmlns="http://www.w3.org/2000/svg">
<path d="M9 1C9 1.55313 8.55313 2 8 2H1C0.446875 2 0 1.55313 0 1C0 0.446875 0.446875 0 1 0H8C8.55313 0 9 0.446875 9 1ZM9 9C9 9.55313 8.55313 10 8 10H1C0.446875 10 0 9.55313 0 9C0 8.44687 0.446875 8 1 8H8C8.55313 8 9 8.44687 9 9ZM0 5C0 4.44687 0.446875 4 1 4H13C13.5531 4 14 4.44687 14 5C14 5.55313 13.5531 6 13 6H1C0.446875 6 0 5.55313 0 5ZM14 13C14 13.5531 13.5531 14 13 14H1C0.446875 14 0 13.5531 0 13C0 12.4469 0.446875 12 1 12H13C13.5531 12 14 12.4469 14 13Z" fill="url(#paint0_linear_54_43)"/>
<defs>
<linearGradient id="paint0_linear_54_43" x1="1.5" y1="1.52205e-07" x2="11.5" y2="14" gradientUnits="userSpaceOnUse">
<stop stop-color="#2400FF"/>
<stop offset="1" stop-color="#EB6F0E"/>
</linearGradient>
</defs>
</svg>
