<svg width="14" height="14" viewBox="0 0 14 14" fill="none" xmlns="http://www.w3.org/2000/svg">
<path d="M14 1C14 1.55313 13.5531 2 13 2H6C5.44687 2 5 1.55313 5 1C5 0.446875 5.44687 0 6 0H13C13.5531 0 14 0.446875 14 1ZM14 9C14 9.55313 13.5531 10 13 10H6C5.44687 10 5 9.55313 5 9C5 8.44687 5.44687 8 6 8H13C13.5531 8 14 8.44687 14 9ZM0 5C0 4.44687 0.446875 4 1 4H13C13.5531 4 14 4.44687 14 5C14 5.55313 13.5531 6 13 6H1C0.446875 6 0 5.55313 0 5ZM14 13C14 13.5531 13.5531 14 13 14H1C0.446875 14 0 13.5531 0 13C0 12.4469 0.446875 12 1 12H13C13.5531 12 14 12.4469 14 13Z" fill="url(#paint0_linear_54_45)"/>
<defs>
<linearGradient id="paint0_linear_54_45" x1="0" y1="0" x2="13" y2="13" gradientUnits="userSpaceOnUse">
<stop stop-color="#2400FF"/>
<stop offset="1" stop-color="#EB6F0E"/>
</linearGradient>
</defs>
</svg>
