<svg width="18" height="14" viewBox="0 0 18 14" fill="none" xmlns="http://www.w3.org/2000/svg">
<path d="M2 3V2H4V12H3C2.44687 12 2 12.4469 2 13C2 13.5531 2.44687 14 3 14H7C7.55313 14 8 13.5531 8 13C8 12.4469 7.55313 12 7 12H6V2H8V3C8 3.55313 8.44687 4 9 4C9.55313 4 10 3.55313 10 3V1.5C10 0.671875 9.32812 0 8.5 0H5H1.5C0.671875 0 0 0.671875 0 1.5V3C0 3.55313 0.446875 4 1 4C1.55313 4 2 3.55313 2 3ZM15.7063 0.29375C15.3156 -0.096875 14.6812 -0.096875 14.2906 0.29375L12.2906 2.29375C12.0031 2.58125 11.9187 3.00938 12.075 3.38438C12.2312 3.75938 12.5938 4.00313 13 4.00313H14V10H13C12.5969 10 12.2312 10.2437 12.075 10.6187C11.9187 10.9937 12.0062 11.4219 12.2906 11.7094L14.2906 13.7094C14.6812 14.1 15.3156 14.1 15.7063 13.7094L17.7062 11.7094C17.9937 11.4219 18.0781 10.9937 17.9219 10.6187C17.7656 10.2437 17.4031 10 16.9969 10H16V4H17C17.4031 4 17.7687 3.75625 17.925 3.38125C18.0812 3.00625 17.9938 2.57813 17.7094 2.29063L15.7094 0.290625L15.7063 0.29375Z" fill="url(#paint0_linear_54_82)"/>
<defs>
<linearGradient id="paint0_linear_54_82" x1="-2.69685e-07" y1="-1.5" x2="18" y2="14" gradientUnits="userSpaceOnUse">
<stop stop-color="#2400FF"/>
<stop offset="1" stop-color="#EB6F0E"/>
</linearGradient>
</defs>
</svg>
