<svg width="20" height="16" viewBox="0 0 20 16" fill="none" xmlns="http://www.w3.org/2000/svg">
<path d="M18.1188 8.36562C19.8844 6.6 19.8844 3.74062 18.1188 1.975C16.5563 0.412497 14.0938 0.209372 12.2969 1.49375L12.2469 1.52812C11.7969 1.85 11.6938 2.475 12.0156 2.92187C12.3375 3.36875 12.9625 3.475 13.4094 3.15312L13.4594 3.11875C14.4625 2.40312 15.8344 2.51562 16.7031 3.3875C17.6875 4.37187 17.6875 5.96562 16.7031 6.95L13.1969 10.4625C12.2125 11.4469 10.6188 11.4469 9.63438 10.4625C8.76251 9.59062 8.65001 8.21875 9.36563 7.21875L9.40001 7.16875C9.72188 6.71875 9.61563 6.09375 9.16876 5.775C8.72188 5.45625 8.09376 5.55937 7.77501 6.00625L7.74063 6.05625C6.45313 7.85 6.65626 10.3125 8.21876 11.875C9.98438 13.6406 12.8438 13.6406 14.6094 11.875L18.1188 8.36562ZM1.88126 7.63437C0.115631 9.4 0.115631 12.2594 1.88126 14.025C3.44376 15.5875 5.90626 15.7906 7.70313 14.5062L7.75313 14.4719C8.20313 14.15 8.30626 13.525 7.98438 13.0781C7.66251 12.6312 7.03751 12.525 6.59063 12.8469L6.54063 12.8812C5.53751 13.5969 4.16563 13.4844 3.29688 12.6125C2.31251 11.625 2.31251 10.0312 3.29688 9.04687L6.80313 5.5375C7.78751 4.55312 9.38126 4.55312 10.3656 5.5375C11.2375 6.40937 11.35 7.78125 10.6344 8.78437L10.6 8.83437C10.2781 9.28437 10.3844 9.90937 10.8313 10.2281C11.2781 10.5469 11.9063 10.4437 12.225 9.99687L12.2594 9.94687C13.5469 8.15 13.3438 5.6875 11.7813 4.125C10.0156 2.35937 7.15626 2.35937 5.39063 4.125L1.88126 7.63437Z" fill="url(#paint0_linear_54_55)"/>
<defs>
<linearGradient id="paint0_linear_54_55" x1="1" y1="1" x2="15.5" y2="16.5" gradientUnits="userSpaceOnUse">
<stop stop-color="#2400FF"/>
<stop offset="1" stop-color="#EB6F0E"/>
</linearGradient>
</defs>
</svg>
