<svg width="16" height="14" viewBox="0 0 16 14" fill="none" xmlns="http://www.w3.org/2000/svg">
<path d="M0.750005 0.75C0.750005 0.334375 1.08438 0 1.5 0H2.5C2.91563 0 3.25 0.334375 3.25 0.75V4.5H3.75C4.16563 4.5 4.5 4.83437 4.5 5.25C4.5 5.66563 4.16563 6 3.75 6H1.25C0.83438 6 0.500005 5.66563 0.500005 5.25C0.500005 4.83437 0.83438 4.5 1.25 4.5H1.75V1.5H1.5C1.08438 1.5 0.750005 1.16563 0.750005 0.75ZM2.70938 9.6625C2.50625 9.43125 2.1375 9.44687 1.95938 9.7L1.60938 10.1844C1.36875 10.5219 0.900005 10.6 0.562505 10.3594C0.225005 10.1188 0.14688 9.65 0.387505 9.3125L0.73438 8.825C1.475 7.7875 2.99375 7.7125 3.83438 8.67188C4.5 9.43437 4.48438 10.575 3.8 11.3188L2.7125 12.5H3.75C4.16563 12.5 4.5 12.8344 4.5 13.25C4.5 13.6656 4.16563 14 3.75 14H1C0.70313 14 0.431255 13.825 0.312505 13.55C0.193755 13.275 0.24688 12.9594 0.44688 12.7406L2.69688 10.3031C2.8625 10.1219 2.86563 9.84688 2.70625 9.6625H2.70938ZM7 1H15C15.5531 1 16 1.44687 16 2C16 2.55313 15.5531 3 15 3H7C6.44688 3 6 2.55313 6 2C6 1.44687 6.44688 1 7 1ZM7 6H15C15.5531 6 16 6.44687 16 7C16 7.55313 15.5531 8 15 8H7C6.44688 8 6 7.55313 6 7C6 6.44687 6.44688 6 7 6ZM7 11H15C15.5531 11 16 11.4469 16 12C16 12.5531 15.5531 13 15 13H7C6.44688 13 6 12.5531 6 12C6 11.4469 6.44688 11 7 11Z" fill="url(#paint0_linear_54_41)"/>
<defs>
<linearGradient id="paint0_linear_54_41" x1="-1.50801e-08" y1="1.01141e-07" x2="16" y2="15.5" gradientUnits="userSpaceOnUse">
<stop stop-color="#2400FF"/>
<stop offset="1" stop-color="#EB6F0E"/>
</linearGradient>
</defs>
</svg>
