<svg width="10" height="14" viewBox="0 0 10 14" fill="none" xmlns="http://www.w3.org/2000/svg">
<path d="M2.5 4C2.5 2.89688 3.39688 2 4.5 2H5.5C6.60312 2 7.5 2.89688 7.5 4V4.1125C7.5 4.79375 7.15313 5.42812 6.58125 5.79375L5.2625 6.64062C4.475 7.14688 4 8.01875 4 8.95312V9C4 9.55313 4.44687 10 5 10C5.55313 10 6 9.55313 6 9V8.95625C6 8.7 6.13125 8.4625 6.34375 8.325L7.6625 7.47812C8.80625 6.74062 9.5 5.475 9.5 4.1125V4C9.5 1.79063 7.70937 0 5.5 0H4.5C2.29063 0 0.5 1.79063 0.5 4C0.5 4.55313 0.946875 5 1.5 5C2.05313 5 2.5 4.55313 2.5 4ZM5 14C5.33152 14 5.64946 13.8683 5.88388 13.6339C6.1183 13.3995 6.25 13.0815 6.25 12.75C6.25 12.4185 6.1183 12.1005 5.88388 11.8661C5.64946 11.6317 5.33152 11.5 5 11.5C4.66848 11.5 4.35054 11.6317 4.11612 11.8661C3.8817 12.1005 3.75 12.4185 3.75 12.75C3.75 13.0815 3.8817 13.3995 4.11612 13.6339C4.35054 13.8683 4.66848 14 5 14Z" fill="url(#paint0_linear_54_67)"/>
<defs>
<linearGradient id="paint0_linear_54_67" x1="1" y1="1" x2="9" y2="14" gradientUnits="userSpaceOnUse">
<stop stop-color="#2400FF"/>
<stop offset="0.935" stop-color="#EB6F0E"/>
<stop offset="1" stop-opacity="0"/>
</linearGradient>
</defs>
</svg>
