<svg width="16" height="13" viewBox="0 0 16 13" fill="none" xmlns="http://www.w3.org/2000/svg">
<path d="M1.5 3C1.89782 3 2.27936 2.84196 2.56066 2.56066C2.84196 2.27936 3 1.89782 3 1.5C3 1.10218 2.84196 0.720644 2.56066 0.43934C2.27936 0.158035 1.89782 0 1.5 0C1.10218 0 0.720644 0.158035 0.43934 0.43934C0.158035 0.720644 0 1.10218 0 1.5C0 1.89782 0.158035 2.27936 0.43934 2.56066C0.720644 2.84196 1.10218 3 1.5 3ZM5.5 0.5C4.94687 0.5 4.5 0.946875 4.5 1.5C4.5 2.05313 4.94687 2.5 5.5 2.5H14.5C15.0531 2.5 15.5 2.05313 15.5 1.5C15.5 0.946875 15.0531 0.5 14.5 0.5H5.5ZM5.5 5.5C4.94687 5.5 4.5 5.94687 4.5 6.5C4.5 7.05313 4.94687 7.5 5.5 7.5H14.5C15.0531 7.5 15.5 7.05313 15.5 6.5C15.5 5.94687 15.0531 5.5 14.5 5.5H5.5ZM5.5 10.5C4.94687 10.5 4.5 10.9469 4.5 11.5C4.5 12.0531 4.94687 12.5 5.5 12.5H14.5C15.0531 12.5 15.5 12.0531 15.5 11.5C15.5 10.9469 15.0531 10.5 14.5 10.5H5.5ZM1.5 13C1.89782 13 2.27936 12.842 2.56066 12.5607C2.84196 12.2794 3 11.8978 3 11.5C3 11.1022 2.84196 10.7206 2.56066 10.4393C2.27936 10.158 1.89782 10 1.5 10C1.10218 10 0.720644 10.158 0.43934 10.4393C0.158035 10.7206 0 11.1022 0 11.5C0 11.8978 0.158035 12.2794 0.43934 12.5607C0.720644 12.842 1.10218 13 1.5 13ZM3 6.5C3 6.30302 2.9612 6.10796 2.88582 5.92597C2.81044 5.74399 2.69995 5.57863 2.56066 5.43934C2.42137 5.30005 2.25601 5.18956 2.07403 5.11418C1.89204 5.0388 1.69698 5 1.5 5C1.30302 5 1.10796 5.0388 0.925975 5.11418C0.743986 5.18956 0.578628 5.30005 0.43934 5.43934C0.300052 5.57863 0.189563 5.74399 0.114181 5.92597C0.0387986 6.10796 -2.93527e-09 6.30302 0 6.5C-2.93527e-09 6.69698 0.0387986 6.89204 0.114181 7.07403C0.189563 7.25601 0.300052 7.42137 0.43934 7.56066C0.578628 7.69995 0.743986 7.81044 0.925975 7.88582C1.10796 7.9612 1.30302 8 1.5 8C1.69698 8 1.89204 7.9612 2.07403 7.88582C2.25601 7.81044 2.42137 7.69995 2.56066 7.56066C2.69995 7.42137 2.81044 7.25601 2.88582 7.07403C2.9612 6.89204 3 6.69698 3 6.5Z" fill="url(#paint0_linear_54_39)"/>
<defs>
<linearGradient id="paint0_linear_54_39" x1="0" y1="0" x2="15" y2="13" gradientUnits="userSpaceOnUse">
<stop stop-color="#2400FF"/>
<stop offset="1" stop-color="#EB6F0E"/>
</linearGradient>
</defs>
</svg>
